<svg width="80" height="80" viewBox="0 0 80 80" fill="none" xmlns="http://www.w3.org/2000/svg">
<rect width="16" height="16" fill="black"/>
<rect x="16" width="16" height="16" fill="black"/>
<rect x="32" width="16" height="16" fill="black"/>
<rect x="48" width="16" height="16" fill="black"/>
<rect x="64" width="16" height="16" fill="black"/>
<rect y="16" width="16" height="16" fill="black"/>
<rect x="64" y="16" width="16" height="16" fill="black"/>
<path d="M0 32H16V48C7.16344 48 0 40.8366 0 32Z" fill="black"/>
<rect x="16" y="32" width="16" height="16" fill="black"/>
<rect x="32" y="32" width="16" height="16" fill="black"/>
<rect x="48" y="32" width="16" height="16" fill="black"/>
<path d="M64 32H80C80 40.8366 72.8366 48 64 48V32Z" fill="black"/>
<rect x="32" y="48" width="16" height="16" fill="black"/>
<rect y="64" width="16" height="16" fill="black"/>
<rect x="16" y="64" width="16" height="16" fill="black"/>
<rect x="32" y="64" width="16" height="16" fill="black"/>
<rect x="48" y="64" width="16" height="16" fill="black"/>
<rect x="64" y="64" width="16" height="16" fill="black"/>
</svg>
