<svg width="80" height="80" viewBox="0 0 80 80" fill="none" xmlns="http://www.w3.org/2000/svg">
<rect x="16" width="16" height="16" fill="black"/>
<rect x="48" width="16" height="16" fill="black"/>
<rect y="16" width="16" height="16" fill="black"/>
<rect x="16" y="16" width="16" height="16" fill="black"/>
<rect x="32" y="16" width="16" height="16" fill="black"/>
<rect x="48" y="16" width="16" height="16" fill="black"/>
<rect x="64" y="16" width="16" height="16" fill="black"/>
<rect y="32" width="16" height="16" fill="black"/>
<rect x="64" y="32" width="16" height="16" fill="black"/>
<path d="M0 48H16V64C7.16344 64 0 56.8366 0 48Z" fill="black"/>
<rect x="16" y="48" width="16" height="16" fill="black"/>
<rect x="32" y="48" width="16" height="16" fill="black"/>
<rect x="48" y="48" width="16" height="16" fill="black"/>
<path d="M64 48H80C80 56.8366 72.8366 64 64 64V48Z" fill="black"/>
<rect x="32" y="64" width="16" height="16" fill="black"/>
</svg>
