<svg width="200" height="20" viewBox="0 0 200 20" fill="none" xmlns="http://www.w3.org/2000/svg">
<rect width="0.676665" height="0.676542" transform="matrix(1 0 0 -1 12.3377 18.0608)" fill="#263926"/>
<rect width="0.676665" height="0.676542" transform="matrix(1 0 0 -1 13.0143 18.0608)" fill="#263926"/>
<rect width="0.676665" height="0.676542" transform="matrix(1 0 0 -1 13.691 18.0608)" fill="#263926"/>
<rect width="0.676665" height="0.676542" transform="matrix(1 0 0 -1 14.3676 18.0608)" fill="#263926"/>
<rect width="0.676665" height="0.676542" transform="matrix(1 0 0 -1 15.0443 18.0608)" fill="#263926"/>
<rect width="0.676665" height="0.676542" transform="matrix(1 0 0 -1 15.721 18.0608)" fill="#263926"/>
<rect width="0.676665" height="0.676542" transform="matrix(1 0 0 -1 15.721 17.3843)" fill="#263926"/>
<rect width="0.676665" height="0.676542" transform="matrix(1 0 0 -1 16.3976 17.3843)" fill="#263926"/>
<rect width="0.676665" height="0.676542" transform="matrix(1 0 0 -1 17.0743 17.3843)" fill="#263926"/>
<rect width="0.676665" height="0.676542" transform="matrix(1 0 0 -1 17.0743 16.7077)" fill="#263926"/>
<rect width="0.676665" height="0.676542" transform="matrix(1 0 0 -1 17.751 16.7077)" fill="#263926"/>
<rect width="0.676665" height="0.676542" transform="matrix(1 0 0 -1 17.751 16.0312)" fill="#263926"/>
<rect width="0.676665" height="0.676542" transform="matrix(1 0 0 -1 18.4276 16.0312)" fill="#263926"/>
<rect width="0.676665" height="0.676542" transform="matrix(1 0 0 -1 19.1043 16.0312)" fill="#263926"/>
<rect width="0.676665" height="0.676542" transform="matrix(1 0 0 -1 19.1043 15.3546)" fill="#263926"/>
<rect width="0.676665" height="0.676542" transform="matrix(1 0 0 -1 19.7809 15.3546)" fill="#263926"/>
<rect width="0.676665" height="0.676542" transform="matrix(1 0 0 -1 19.7809 14.6781)" fill="#263926"/>
<rect width="0.676665" height="0.676542" transform="matrix(1 0 0 -1 19.7809 14.0016)" fill="#263926"/>
<rect width="0.676665" height="0.676542" transform="matrix(1 0 0 -1 20.4576 14.0016)" fill="#263926"/>
<rect width="0.676665" height="0.676542" transform="matrix(1 0 0 -1 21.1343 14.0016)" fill="#263926"/>
<rect width="0.676665" height="0.676542" transform="matrix(1 0 0 -1 21.1343 14.6781)" fill="#263926"/>
<rect width="0.676665" height="0.676542" transform="matrix(1 0 0 -1 21.1343 15.3546)" fill="#263926"/>
<rect width="0.676665" height="0.676542" transform="matrix(1 0 0 -1 20.4576 14.6781)" fill="#263926"/>
<rect width="0.676665" height="0.676542" transform="matrix(1 0 0 -1 20.4576 15.3546)" fill="#263926"/>
<rect width="0.676665" height="0.676542" transform="matrix(1 0 0 -1 20.4576 16.0312)" fill="#263926"/>
<rect width="0.676665" height="0.676542" transform="matrix(1 0 0 -1 19.7809 16.0312)" fill="#263926"/>
<rect width="0.676665" height="0.676542" transform="matrix(1 0 0 -1 19.7809 16.7077)" fill="#263926"/>
<rect width="0.676665" height="0.676542" transform="matrix(1 0 0 -1 19.1043 16.7077)" fill="#263926"/>
<rect width="0.676665" height="0.676542" transform="matrix(1 0 0 -1 18.4276 16.7077)" fill="#263926"/>
<rect width="0.676665" height="0.676542" transform="matrix(1 0 0 -1 18.4276 17.3843)" fill="#263926"/>
<rect width="0.676665" height="0.676542" transform="matrix(1 0 0 -1 17.751 17.3843)" fill="#263926"/>
<rect width="0.676665" height="0.676542" transform="matrix(1 0 0 -1 17.0743 18.0608)" fill="#263926"/>
<rect width="0.676665" height="0.676542" transform="matrix(1 0 0 -1 16.3976 18.0608)" fill="#263926"/>
<rect width="0.676665" height="0.676542" transform="matrix(1 0 0 -1 16.3976 18.7374)" fill="#263926"/>
<rect width="0.676665" height="0.676542" transform="matrix(1 0 0 -1 15.721 18.7374)" fill="#263926"/>
<rect width="0.676665" height="0.676542" transform="matrix(1 0 0 -1 15.0443 18.7374)" fill="#263926"/>
<rect width="0.676665" height="0.676542" transform="matrix(1 0 0 -1 15.0443 19.4139)" fill="#263926"/>
<rect width="0.676665" height="0.676542" transform="matrix(1 0 0 -1 14.3676 18.7374)" fill="#263926"/>
<rect width="0.676665" height="0.676542" transform="matrix(1 0 0 -1 14.3676 19.4139)" fill="#263926"/>
<rect width="0.676665" height="0.676542" transform="matrix(1 0 0 -1 13.691 18.7374)" fill="#263926"/>
<rect width="0.676665" height="0.676542" transform="matrix(1 0 0 -1 13.691 19.4139)" fill="#263926"/>
<rect width="0.676665" height="0.676542" transform="matrix(1 0 0 -1 13.0143 18.7374)" fill="#263926"/>
<rect width="0.676665" height="0.676542" transform="matrix(1 0 0 -1 13.0143 19.4139)" fill="#263926"/>
<rect width="0.676665" height="0.676542" transform="matrix(1 0 0 -1 12.3377 18.7374)" fill="#263926"/>
<rect width="0.676665" height="0.676542" transform="matrix(1 0 0 -1 12.3377 19.4139)" fill="#263926"/>
<rect x="12.3377" y="18.0608" width="0.676665" height="0.676542" transform="rotate(180 12.3377 18.0608)" fill="#263926"/>
<rect x="11.661" y="18.0608" width="0.676665" height="0.676542" transform="rotate(180 11.661 18.0608)" fill="#263926"/>
<rect x="10.9843" y="18.0608" width="0.676665" height="0.676542" transform="rotate(180 10.9843 18.0608)" fill="#263926"/>
<rect x="10.3077" y="18.0608" width="0.676665" height="0.676542" transform="rotate(180 10.3077 18.0608)" fill="#263926"/>
<rect x="9.63104" y="18.0608" width="0.676665" height="0.676542" transform="rotate(180 9.63104 18.0608)" fill="#263926"/>
<rect x="8.95441" y="18.0608" width="0.676665" height="0.676542" transform="rotate(180 8.95441 18.0608)" fill="#263926"/>
<rect x="8.95441" y="17.3843" width="0.676665" height="0.676542" transform="rotate(180 8.95441 17.3843)" fill="#263926"/>
<rect x="8.27771" y="17.3843" width="0.676665" height="0.676542" transform="rotate(180 8.27771 17.3843)" fill="#263926"/>
<rect x="7.60101" y="17.3843" width="0.676665" height="0.676542" transform="rotate(180 7.60101 17.3843)" fill="#263926"/>
<rect x="7.60101" y="16.7077" width="0.676665" height="0.676542" transform="rotate(180 7.60101 16.7077)" fill="#263926"/>
<rect x="6.92438" y="16.7077" width="0.676665" height="0.676542" transform="rotate(180 6.92438 16.7077)" fill="#263926"/>
<rect x="6.92438" y="16.0312" width="0.676665" height="0.676542" transform="rotate(180 6.92438 16.0312)" fill="#263926"/>
<rect x="6.24774" y="16.0312" width="0.676665" height="0.676542" transform="rotate(180 6.24774 16.0312)" fill="#263926"/>
<rect x="5.57104" y="16.0312" width="0.676665" height="0.676542" transform="rotate(180 5.57104 16.0312)" fill="#263926"/>
<rect x="5.57104" y="15.3546" width="0.676665" height="0.676542" transform="rotate(180 5.57104 15.3546)" fill="#263926"/>
<rect x="4.89441" y="15.3546" width="0.676665" height="0.676542" transform="rotate(180 4.89441 15.3546)" fill="#263926"/>
<rect x="4.89441" y="14.6781" width="0.676665" height="0.676542" transform="rotate(180 4.89441 14.6781)" fill="#263926"/>
<rect x="4.89441" y="14.0016" width="0.676665" height="0.676542" transform="rotate(180 4.89441 14.0016)" fill="#263926"/>
<rect x="4.21771" y="14.0016" width="0.676665" height="0.676542" transform="rotate(180 4.21771 14.0016)" fill="#263926"/>
<rect x="3.54108" y="14.0016" width="0.676665" height="0.676542" transform="rotate(180 3.54108 14.0016)" fill="#263926"/>
<rect x="3.54108" y="14.6781" width="0.676665" height="0.676542" transform="rotate(180 3.54108 14.6781)" fill="#263926"/>
<rect x="3.54108" y="15.3546" width="0.676665" height="0.676542" transform="rotate(180 3.54108 15.3546)" fill="#263926"/>
<rect x="4.21771" y="14.6781" width="0.676665" height="0.676542" transform="rotate(180 4.21771 14.6781)" fill="#263926"/>
<rect x="4.21771" y="15.3546" width="0.676665" height="0.676542" transform="rotate(180 4.21771 15.3546)" fill="#263926"/>
<rect x="4.21771" y="16.0312" width="0.676665" height="0.676542" transform="rotate(180 4.21771 16.0312)" fill="#263926"/>
<rect x="4.89441" y="16.0312" width="0.676665" height="0.676542" transform="rotate(180 4.89441 16.0312)" fill="#263926"/>
<rect x="4.89441" y="16.7077" width="0.676665" height="0.676542" transform="rotate(180 4.89441 16.7077)" fill="#263926"/>
<rect x="5.57104" y="16.7077" width="0.676665" height="0.676542" transform="rotate(180 5.57104 16.7077)" fill="#263926"/>
<rect x="6.24774" y="16.7077" width="0.676665" height="0.676542" transform="rotate(180 6.24774 16.7077)" fill="#263926"/>
<rect x="6.24774" y="17.3843" width="0.676665" height="0.676542" transform="rotate(180 6.24774 17.3843)" fill="#263926"/>
<rect x="6.92438" y="17.3843" width="0.676665" height="0.676542" transform="rotate(180 6.92438 17.3843)" fill="#263926"/>
<rect x="7.60101" y="18.0608" width="0.676665" height="0.676542" transform="rotate(180 7.60101 18.0608)" fill="#263926"/>
<rect x="8.27771" y="18.0608" width="0.676665" height="0.676542" transform="rotate(180 8.27771 18.0608)" fill="#263926"/>
<rect x="8.27771" y="18.7374" width="0.676665" height="0.676542" transform="rotate(180 8.27771 18.7374)" fill="#263926"/>
<rect x="8.95441" y="18.7374" width="0.676665" height="0.676542" transform="rotate(180 8.95441 18.7374)" fill="#263926"/>
<rect x="9.63104" y="18.7374" width="0.676665" height="0.676542" transform="rotate(180 9.63104 18.7374)" fill="#263926"/>
<rect x="9.63104" y="19.4139" width="0.676665" height="0.676542" transform="rotate(180 9.63104 19.4139)" fill="#263926"/>
<rect x="10.3077" y="18.7374" width="0.676665" height="0.676542" transform="rotate(180 10.3077 18.7374)" fill="#263926"/>
<rect x="10.3077" y="19.4139" width="0.676665" height="0.676542" transform="rotate(180 10.3077 19.4139)" fill="#263926"/>
<rect x="10.9843" y="18.7374" width="0.676665" height="0.676542" transform="rotate(180 10.9843 18.7374)" fill="#263926"/>
<rect x="10.9843" y="19.4139" width="0.676665" height="0.676542" transform="rotate(180 10.9843 19.4139)" fill="#263926"/>
<rect x="11.661" y="18.7374" width="0.676665" height="0.676542" transform="rotate(180 11.661 18.7374)" fill="#263926"/>
<rect x="11.661" y="19.4139" width="0.676665" height="0.676542" transform="rotate(180 11.661 19.4139)" fill="#263926"/>
<rect x="12.3377" y="18.7374" width="0.676665" height="0.676542" transform="rotate(180 12.3377 18.7374)" fill="#263926"/>
<rect x="12.3377" y="19.4139" width="0.676665" height="0.676542" transform="rotate(180 12.3377 19.4139)" fill="#263926"/>
<rect x="3.3833" y="0.261292" width="0.676665" height="0.676542" fill="#263926"/>
<rect x="3.3833" y="0.937866" width="0.676665" height="0.676542" fill="#263926"/>
<rect x="3.3833" y="1.61438" width="0.676665" height="0.676542" fill="#263926"/>
<rect x="2.02997" y="0.937866" width="0.676665" height="0.676542" fill="#263926"/>
<rect x="2.02997" y="1.61438" width="0.676665" height="0.676542" fill="#263926"/>
<rect x="2.02997" y="2.29089" width="0.676665" height="0.676542" fill="#263926"/>
<rect x="2.02997" y="2.96747" width="0.676665" height="0.676542" fill="#263926"/>
<rect x="1.35333" y="3.64404" width="0.676665" height="0.676542" fill="#263926"/>
<rect x="1.35333" y="4.32056" width="0.676665" height="0.676542" fill="#263926"/>
<rect x="1.35333" y="0.937866" width="0.676665" height="0.676542" fill="#263926"/>
<rect x="1.35333" y="1.61438" width="0.676665" height="0.676542" fill="#263926"/>
<rect x="1.35333" y="2.29089" width="0.676665" height="0.676542" fill="#263926"/>
<rect x="1.35333" y="2.96747" width="0.676665" height="0.676542" fill="#263926"/>
<rect x="0.676636" y="3.64404" width="0.676665" height="0.676542" fill="#263926"/>
<rect x="0.676636" y="4.32056" width="0.676665" height="0.676542" fill="#263926"/>
<rect x="0.676636" y="2.29089" width="0.676665" height="0.676542" fill="#263926"/>
<rect x="0.676636" y="2.96747" width="0.676665" height="0.676542" fill="#263926"/>
<rect y="3.64404" width="0.676665" height="0.676542" fill="#263926"/>
<rect y="4.32056" width="0.676665" height="0.676542" fill="#263926"/>
<rect x="4.05994" y="0.261292" width="0.676665" height="0.676542" fill="#263926"/>
<rect x="4.05994" y="0.937866" width="0.676665" height="0.676542" fill="#263926"/>
<rect x="2.7066" y="0.937866" width="0.676665" height="0.676542" fill="#263926"/>
<rect x="2.7066" y="1.61438" width="0.676665" height="0.676542" fill="#263926"/>
<rect x="4.73663" y="0.261292" width="0.676665" height="0.676542" fill="#263926"/>
<rect x="4.73663" y="0.937866" width="0.676665" height="0.676542" fill="#263926"/>
<rect x="5.41327" y="0.261292" width="0.676665" height="0.676542" fill="#263926"/>
<rect x="5.41327" y="0.937866" width="0.676665" height="0.676542" fill="#263926"/>
<rect x="6.0899" y="0.261292" width="0.676665" height="0.676542" fill="#263926"/>
<rect x="6.0899" y="0.937866" width="0.676665" height="0.676542" fill="#263926"/>
<rect x="7.4433" y="0.937866" width="0.676665" height="0.676542" fill="#263926"/>
<rect x="7.4433" y="1.61438" width="0.676665" height="0.676542" fill="#263926"/>
<rect x="6.7666" y="0.261292" width="0.676665" height="0.676542" fill="#263926"/>
<rect x="6.7666" y="0.937866" width="0.676665" height="0.676542" fill="#263926"/>
<rect x="6.7666" y="1.61438" width="0.676665" height="0.676542" fill="#263926"/>
<rect x="8.11993" y="0.937866" width="0.676665" height="0.676542" fill="#263926"/>
<rect x="8.11993" y="1.61438" width="0.676665" height="0.676542" fill="#263926"/>
<rect x="8.11993" y="2.29089" width="0.676665" height="0.676542" fill="#263926"/>
<rect x="8.11993" y="2.96747" width="0.676665" height="0.676542" fill="#263926"/>
<rect x="8.79657" y="0.937866" width="0.676665" height="0.676542" fill="#263926"/>
<rect x="8.79657" y="1.61438" width="0.676665" height="0.676542" fill="#263926"/>
<rect x="8.79657" y="2.29089" width="0.676665" height="0.676542" fill="#263926"/>
<rect x="8.79657" y="2.96747" width="0.676665" height="0.676542" fill="#263926"/>
<rect x="8.79657" y="3.64404" width="0.676665" height="0.676542" fill="#263926"/>
<rect x="8.79657" y="4.32056" width="0.676665" height="0.676542" fill="#263926"/>
<rect x="9.47327" y="2.29089" width="0.676665" height="0.676542" fill="#263926"/>
<rect x="9.47327" y="2.96747" width="0.676665" height="0.676542" fill="#263926"/>
<rect x="9.47327" y="3.64404" width="0.676665" height="0.676542" fill="#263926"/>
<rect x="9.47327" y="4.32056" width="0.676665" height="0.676542" fill="#263926"/>
<rect x="10.1499" y="3.64404" width="0.676665" height="0.676542" fill="#263926"/>
<rect x="10.1499" y="4.32056" width="0.676665" height="0.676542" fill="#263926"/>
<rect width="0.676665" height="0.676542" transform="matrix(1 0 0 -1 3.3833 9.73285)" fill="#263926"/>
<rect width="0.676665" height="0.676542" transform="matrix(1 0 0 -1 3.3833 9.05634)" fill="#263926"/>
<rect width="0.676665" height="0.676542" transform="matrix(1 0 0 -1 3.3833 8.37982)" fill="#263926"/>
<rect width="0.676665" height="0.676542" transform="matrix(1 0 0 -1 2.02997 9.05634)" fill="#263926"/>
<rect width="0.676665" height="0.676542" transform="matrix(1 0 0 -1 2.02997 8.37982)" fill="#263926"/>
<rect width="0.676665" height="0.676542" transform="matrix(1 0 0 -1 2.02997 7.70325)" fill="#263926"/>
<rect width="0.676665" height="0.676542" transform="matrix(1 0 0 -1 2.02997 7.02667)" fill="#263926"/>
<rect width="0.676665" height="0.676542" transform="matrix(1 0 0 -1 1.35333 6.35016)" fill="#263926"/>
<rect width="0.676665" height="0.676542" transform="matrix(1 0 0 -1 1.35333 5.67365)" fill="#263926"/>
<rect width="0.676665" height="0.676542" transform="matrix(1 0 0 -1 1.35333 9.05634)" fill="#263926"/>
<rect width="0.676665" height="0.676542" transform="matrix(1 0 0 -1 1.35333 8.37982)" fill="#263926"/>
<rect width="0.676665" height="0.676542" transform="matrix(1 0 0 -1 1.35333 7.70325)" fill="#263926"/>
<rect width="0.676665" height="0.676542" transform="matrix(1 0 0 -1 1.35333 7.02667)" fill="#263926"/>
<rect width="0.676665" height="0.676542" transform="matrix(1 0 0 -1 0.676636 6.35016)" fill="#263926"/>
<rect width="0.676665" height="0.676542" transform="matrix(1 0 0 -1 0.676636 5.67365)" fill="#263926"/>
<rect width="0.676665" height="0.676542" transform="matrix(1 0 0 -1 0.676636 7.70325)" fill="#263926"/>
<rect width="0.676665" height="0.676542" transform="matrix(1 0 0 -1 0.676636 7.02667)" fill="#263926"/>
<rect width="0.676665" height="0.676542" transform="matrix(1 0 0 -1 0 6.35016)" fill="#263926"/>
<rect width="0.676665" height="0.676542" transform="matrix(1 0 0 -1 0 5.67365)" fill="#263926"/>
<rect width="0.676665" height="0.676542" transform="matrix(1 0 0 -1 4.05994 9.73285)" fill="#263926"/>
<rect width="0.676665" height="0.676542" transform="matrix(1 0 0 -1 4.05994 9.05634)" fill="#263926"/>
<rect width="0.676665" height="0.676542" transform="matrix(1 0 0 -1 2.7066 9.05634)" fill="#263926"/>
<rect width="0.676665" height="0.676542" transform="matrix(1 0 0 -1 2.7066 8.37982)" fill="#263926"/>
<rect width="0.676665" height="0.676542" transform="matrix(1 0 0 -1 4.73663 9.73285)" fill="#263926"/>
<rect width="0.676665" height="0.676542" transform="matrix(1 0 0 -1 4.73663 9.05634)" fill="#263926"/>
<rect width="0.676665" height="0.676542" transform="matrix(1 0 0 -1 5.41327 9.73285)" fill="#263926"/>
<rect width="0.676665" height="0.676542" transform="matrix(1 0 0 -1 5.41327 9.05634)" fill="#263926"/>
<rect width="0.676665" height="0.676542" transform="matrix(1 0 0 -1 6.0899 9.73285)" fill="#263926"/>
<rect width="0.676665" height="0.676542" transform="matrix(1 0 0 -1 6.0899 9.05634)" fill="#263926"/>
<rect width="0.676665" height="0.676542" transform="matrix(1 0 0 -1 7.4433 9.05634)" fill="#263926"/>
<rect width="0.676665" height="0.676542" transform="matrix(1 0 0 -1 7.4433 8.37982)" fill="#263926"/>
<rect width="0.676665" height="0.676542" transform="matrix(1 0 0 -1 6.7666 9.73285)" fill="#263926"/>
<rect width="0.676665" height="0.676542" transform="matrix(1 0 0 -1 6.7666 9.05634)" fill="#263926"/>
<rect width="0.676665" height="0.676542" transform="matrix(1 0 0 -1 6.7666 8.37982)" fill="#263926"/>
<rect width="0.676665" height="0.676542" transform="matrix(1 0 0 -1 8.11993 9.05634)" fill="#263926"/>
<rect width="0.676665" height="0.676542" transform="matrix(1 0 0 -1 8.11993 8.37982)" fill="#263926"/>
<rect width="0.676665" height="0.676542" transform="matrix(1 0 0 -1 8.11993 7.70325)" fill="#263926"/>
<rect width="0.676665" height="0.676542" transform="matrix(1 0 0 -1 8.11993 7.02667)" fill="#263926"/>
<rect width="0.676665" height="0.676542" transform="matrix(1 0 0 -1 8.79657 9.05634)" fill="#263926"/>
<rect width="0.676665" height="0.676542" transform="matrix(1 0 0 -1 8.79657 8.37982)" fill="#263926"/>
<rect width="0.676665" height="0.676542" transform="matrix(1 0 0 -1 8.79657 7.70325)" fill="#263926"/>
<rect width="0.676665" height="0.676542" transform="matrix(1 0 0 -1 8.79657 7.02667)" fill="#263926"/>
<rect width="0.676665" height="0.676542" transform="matrix(1 0 0 -1 8.79657 6.35016)" fill="#263926"/>
<rect width="0.676665" height="0.676542" transform="matrix(1 0 0 -1 8.79657 5.67365)" fill="#263926"/>
<rect width="0.676665" height="0.676542" transform="matrix(1 0 0 -1 9.47327 7.70325)" fill="#263926"/>
<rect width="0.676665" height="0.676542" transform="matrix(1 0 0 -1 9.47327 7.02667)" fill="#263926"/>
<rect width="0.676665" height="0.676542" transform="matrix(1 0 0 -1 9.47327 6.35016)" fill="#263926"/>
<rect width="0.676665" height="0.676542" transform="matrix(1 0 0 -1 9.47327 5.67365)" fill="#263926"/>
<rect width="0.676665" height="0.676542" transform="matrix(1 0 0 -1 10.1499 6.35016)" fill="#263926"/>
<rect width="0.676665" height="0.676542" transform="matrix(1 0 0 -1 10.1499 5.67365)" fill="#263926"/>
<rect x="16.0565" y="5.67371" width="0.676665" height="0.676542" fill="#263926"/>
<rect x="16.0565" y="6.35022" width="0.676665" height="0.676542" fill="#263926"/>
<rect x="16.7331" y="5.67371" width="0.676665" height="0.676542" fill="#263926"/>
<rect x="16.7331" y="6.35022" width="0.676665" height="0.676542" fill="#263926"/>
<rect x="17.4097" y="5.67371" width="0.676665" height="0.676542" fill="#263926"/>
<rect x="17.4097" y="6.35022" width="0.676665" height="0.676542" fill="#263926"/>
<rect x="17.4097" y="7.02673" width="0.676665" height="0.676542" fill="#263926"/>
<rect x="18.0864" y="5.67371" width="0.676665" height="0.676542" fill="#263926"/>
<rect x="18.0864" y="6.35022" width="0.676665" height="0.676542" fill="#263926"/>
<rect x="18.0864" y="7.02673" width="0.676665" height="0.676542" fill="#263926"/>
<rect x="18.7631" y="6.35022" width="0.676665" height="0.676542" fill="#263926"/>
<rect x="18.7631" y="7.02673" width="0.676665" height="0.676542" fill="#263926"/>
<rect x="18.7631" y="7.70325" width="0.676665" height="0.676542" fill="#263926"/>
<rect x="20.1164" y="7.02673" width="0.676665" height="0.676542" fill="#263926"/>
<rect x="20.1164" y="7.70325" width="0.676665" height="0.676542" fill="#263926"/>
<rect x="20.1164" y="8.37988" width="0.676665" height="0.676542" fill="#263926"/>
<rect x="21.4697" y="7.70325" width="0.676665" height="0.676542" fill="#263926"/>
<rect x="21.4697" y="8.37988" width="0.676665" height="0.676542" fill="#263926"/>
<rect x="21.4697" y="9.0564" width="0.676665" height="0.676542" fill="#263926"/>
<rect x="19.4398" y="6.35022" width="0.676665" height="0.676542" fill="#263926"/>
<rect x="19.4398" y="7.02673" width="0.676665" height="0.676542" fill="#263926"/>
<rect x="19.4398" y="7.70325" width="0.676665" height="0.676542" fill="#263926"/>
<rect x="20.793" y="7.02673" width="0.676665" height="0.676542" fill="#263926"/>
<rect x="20.793" y="7.70325" width="0.676665" height="0.676542" fill="#263926"/>
<rect x="20.793" y="8.37988" width="0.676665" height="0.676542" fill="#263926"/>
<rect x="22.1464" y="8.37988" width="0.676665" height="0.676542" fill="#263926"/>
<rect x="22.1464" y="7.70325" width="0.676665" height="0.676542" fill="#263926"/>
<rect x="22.1464" y="9.0564" width="0.676665" height="0.676542" fill="#263926"/>
<rect x="22.8231" y="8.37988" width="0.676665" height="0.676542" fill="#263926"/>
<rect x="15.3798" y="4.99713" width="0.676665" height="0.676542" fill="#263926"/>
<rect x="15.3798" y="5.67371" width="0.676665" height="0.676542" fill="#263926"/>
<rect x="16.0565" y="4.99713" width="0.676665" height="0.676542" fill="#263926"/>
<rect x="16.7331" y="4.99713" width="0.676665" height="0.676542" fill="#263926"/>
<rect width="0.676665" height="0.676542" transform="matrix(1 0 0 -1 16.0565 4.32056)" fill="#263926"/>
<rect width="0.676665" height="0.676542" transform="matrix(1 0 0 -1 16.0565 3.64404)" fill="#263926"/>
<rect width="0.676665" height="0.676542" transform="matrix(1 0 0 -1 16.7331 4.32056)" fill="#263926"/>
<rect width="0.676665" height="0.676542" transform="matrix(1 0 0 -1 16.7331 3.64404)" fill="#263926"/>
<rect width="0.676665" height="0.676542" transform="matrix(1 0 0 -1 17.4097 4.32056)" fill="#263926"/>
<rect width="0.676665" height="0.676542" transform="matrix(1 0 0 -1 17.4097 3.64404)" fill="#263926"/>
<rect width="0.676665" height="0.676542" transform="matrix(1 0 0 -1 17.4097 2.96747)" fill="#263926"/>
<rect width="0.676665" height="0.676542" transform="matrix(1 0 0 -1 18.0864 4.32056)" fill="#263926"/>
<rect width="0.676665" height="0.676542" transform="matrix(1 0 0 -1 18.0864 3.64404)" fill="#263926"/>
<rect width="0.676665" height="0.676542" transform="matrix(1 0 0 -1 18.0864 2.96747)" fill="#263926"/>
<rect width="0.676665" height="0.676542" transform="matrix(1 0 0 -1 18.7631 3.64404)" fill="#263926"/>
<rect width="0.676665" height="0.676542" transform="matrix(1 0 0 -1 18.7631 2.96747)" fill="#263926"/>
<rect width="0.676665" height="0.676542" transform="matrix(1 0 0 -1 18.7631 2.29095)" fill="#263926"/>
<rect width="0.676665" height="0.676542" transform="matrix(1 0 0 -1 20.1164 2.96747)" fill="#263926"/>
<rect width="0.676665" height="0.676542" transform="matrix(1 0 0 -1 20.1164 2.29095)" fill="#263926"/>
<rect width="0.676665" height="0.676542" transform="matrix(1 0 0 -1 20.1164 1.61438)" fill="#263926"/>
<rect width="0.676665" height="0.676542" transform="matrix(1 0 0 -1 21.4697 2.29095)" fill="#263926"/>
<rect width="0.676665" height="0.676542" transform="matrix(1 0 0 -1 21.4697 1.61438)" fill="#263926"/>
<rect width="0.676665" height="0.676542" transform="matrix(1 0 0 -1 21.4697 0.937866)" fill="#263926"/>
<rect width="0.676665" height="0.676542" transform="matrix(1 0 0 -1 19.4398 3.64404)" fill="#263926"/>
<rect width="0.676665" height="0.676542" transform="matrix(1 0 0 -1 19.4398 2.96747)" fill="#263926"/>
<rect width="0.676665" height="0.676542" transform="matrix(1 0 0 -1 19.4398 2.29095)" fill="#263926"/>
<rect width="0.676665" height="0.676542" transform="matrix(1 0 0 -1 20.793 2.96747)" fill="#263926"/>
<rect width="0.676665" height="0.676542" transform="matrix(1 0 0 -1 20.793 2.29095)" fill="#263926"/>
<rect width="0.676665" height="0.676542" transform="matrix(1 0 0 -1 20.793 1.61438)" fill="#263926"/>
<rect width="0.676665" height="0.676542" transform="matrix(1 0 0 -1 22.1464 1.61438)" fill="#263926"/>
<rect width="0.676665" height="0.676542" transform="matrix(1 0 0 -1 22.1464 2.29095)" fill="#263926"/>
<rect width="0.676665" height="0.676542" transform="matrix(1 0 0 -1 22.1464 0.937866)" fill="#263926"/>
<rect width="0.676665" height="0.676542" transform="matrix(1 0 0 -1 22.8231 1.61438)" fill="#263926"/>
<rect width="0.676665" height="0.676542" transform="matrix(1 0 0 -1 15.3798 4.99713)" fill="#263926"/>
<rect width="0.676665" height="0.676542" transform="matrix(1 0 0 -1 15.3798 4.32056)" fill="#263926"/>
<rect width="0.676665" height="0.676542" transform="matrix(1 0 0 -1 16.0565 4.99713)" fill="#263926"/>
<rect width="0.676665" height="0.676542" transform="matrix(1 0 0 -1 16.7331 4.99713)" fill="#263926"/>
<path d="M191.795 4.6142L194.972 13.6682L198.237 4.6142H200L195.56 16.3017C194.668 18.6523 194.058 19.4141 192.165 19.4141H190.924V17.9994H191.795C193.014 17.9994 193.405 17.76 194.145 15.7141L189.945 4.6142H191.795Z" fill="#263926"/>
<path d="M189.41 12.0793C188.844 14.5387 187.125 15.9751 184.579 15.9751C181.357 15.9751 179.225 13.5157 179.225 10.164C179.225 6.85581 181.336 4.39642 184.557 4.39642C187.125 4.39642 188.844 5.85464 189.41 8.29227H187.604C187.212 6.6817 186.189 5.81112 184.557 5.81112C182.337 5.81112 181.053 7.63933 181.053 10.164C181.053 12.7105 182.359 14.5604 184.579 14.5604C186.298 14.5604 187.212 13.581 187.604 12.0793H189.41Z" fill="#263926"/>
<path d="M168.23 4.61407H169.928V6.48582C170.472 5.41936 171.56 4.39642 173.584 4.39642C175.978 4.39642 177.24 5.76759 177.24 7.94404V15.714H175.543V8.22698C175.543 6.70346 174.825 5.81112 172.996 5.81112C171.299 5.81112 169.928 7.11699 169.928 9.24991V15.714H168.23V4.61407Z" fill="#263926"/>
<path d="M155.611 10.164C155.611 6.85581 157.678 4.39642 160.943 4.39642C164.317 4.39642 166.341 7.16051 166.188 10.5122H157.439C157.526 12.9281 158.788 14.5604 161.03 14.5604C162.793 14.5604 163.729 13.494 164.164 12.1881H165.971C165.34 14.4081 163.598 15.9751 161.03 15.9751C157.744 15.9751 155.611 13.5157 155.611 10.164ZM164.36 9.16285C164.034 7.16051 162.858 5.81112 160.943 5.81112C159.006 5.81112 157.809 7.13875 157.504 9.16285H164.36Z" fill="#263926"/>
<path d="M148.784 19.6751C145.976 19.6751 144.301 18.2386 143.974 16.3669H145.759C146.042 17.4986 146.978 18.3039 148.784 18.3039C150.83 18.3039 151.853 17.281 151.853 15.1263V13.6463C151.135 14.9304 149.916 15.5834 148.283 15.5834C145.41 15.5834 143.539 13.2328 143.539 9.96813C143.539 6.74699 145.41 4.39642 148.283 4.39642C149.916 4.39642 151.135 5.13642 151.853 6.42052V4.61407H153.55V14.7781C153.55 17.8686 152.114 19.6751 148.784 19.6751ZM148.632 14.1687C150.721 14.1687 151.896 12.4058 151.896 9.96813C151.896 7.57404 150.721 5.81112 148.632 5.81112C146.542 5.81112 145.367 7.57404 145.367 9.96813C145.367 12.4058 146.542 14.1687 148.632 14.1687Z" fill="#263926"/>
<path d="M140.995 15.714L139.493 11.4264H132.724L131.201 15.714H129.286L134.944 0.261169H137.339L142.997 15.714H140.995ZM133.269 9.83755H138.927L136.098 1.82821L133.269 9.83755Z" fill="#263926"/>
<path d="M125.875 13.1497V15.714H123.293V13.1497H125.875Z" fill="#263926"/>
<path d="M121.137 4.61407H121.899V7.09523H120.832C118.982 7.09523 117.981 7.81346 117.959 10.077V15.714H115.217V4.61407H117.894V6.6817C118.308 5.57171 119.352 4.61407 121.137 4.61407Z" fill="#263926"/>
<path d="M102.452 10.1639C102.452 6.85569 104.693 4.3963 108.089 4.3963C111.571 4.3963 113.726 7.11686 113.595 10.7733H105.281C105.39 12.7974 106.434 14.0162 108.154 14.0162C109.525 14.0162 110.287 13.2109 110.635 12.188H113.377C112.768 14.3427 110.961 15.975 108.132 15.975C104.737 15.975 102.452 13.5156 102.452 10.1639ZM110.809 9.0539C110.548 7.42157 109.612 6.33334 108.089 6.33334C106.565 6.33334 105.607 7.3998 105.368 9.0539H110.809Z" fill="#263926"/>
<path d="M94.5782 15.9751C92.2711 15.9751 90.9653 14.4952 90.9653 12.2099V4.61407H93.7076V11.6222C93.7076 12.9716 94.2735 13.7987 95.6882 13.7987C97.0593 13.7987 98.0605 12.6887 98.0605 10.9475V4.61407H100.803V15.714H98.104V13.9293C97.4946 15.0175 96.4499 15.9751 94.5782 15.9751Z" fill="#263926"/>
<path d="M86.0849 13.9944C85.4319 15.2133 84.2566 15.975 82.6678 15.975C79.8384 15.975 77.9885 13.5374 77.9885 10.1857C77.9885 6.81216 79.8384 4.3963 82.6678 4.3963C84.2566 4.3963 85.4319 5.17982 86.0849 6.37687V4.61395H88.8272V19.4138H86.0849V13.9944ZM83.5384 13.9292C85.2143 13.9292 86.1502 12.4056 86.1502 10.1857C86.1502 7.98744 85.2143 6.44216 83.5384 6.44216C81.8625 6.44216 80.9267 7.98744 80.9267 10.1857C80.9267 12.4056 81.8625 13.9292 83.5384 13.9292Z" fill="#263926"/>
<path d="M71.2344 15.975C67.8392 15.975 65.5974 13.5156 65.5974 10.1639C65.5974 6.85569 67.8392 4.3963 71.2344 4.3963C74.6297 4.3963 76.8714 6.85569 76.8714 10.1639C76.8714 13.5156 74.6297 15.975 71.2344 15.975ZM71.2344 13.9727C72.9756 13.9727 73.955 12.4056 73.955 10.1639C73.955 7.94391 72.9756 6.39863 71.2344 6.39863C69.4933 6.39863 68.5139 7.94391 68.5139 10.1639C68.5139 12.4056 69.4933 13.9727 71.2344 13.9727Z" fill="#263926"/>
<path d="M54.0695 0.261169H56.8118V6.42052C57.3995 5.35406 58.4877 4.39642 60.3812 4.39642C62.7753 4.39642 64.0377 5.85465 64.0377 8.11815V15.714H61.2736V8.72756C61.2736 7.37816 60.7295 6.55111 59.2495 6.55111C57.8348 6.55111 56.8118 7.6611 56.8118 9.40226V15.714H54.0695V0.261169Z" fill="#263926"/>
<path d="M45.7349 15.9751C41.1644 15.9751 38.1826 12.6887 38.1826 7.98757C38.1826 3.28644 41.1644 0 45.7349 0C49.4566 0 51.8507 2.35057 52.4819 5.37583H49.4131C49.0213 3.72173 47.7372 2.54645 45.7349 2.54645C42.9055 2.54645 41.2514 4.80995 41.2514 7.98757C41.2514 11.1652 42.9055 13.4287 45.7349 13.4287C47.8678 13.4287 49.0213 12.2534 49.4131 10.5993H52.4819C51.8725 13.6246 49.5654 15.9751 45.7349 15.9751Z" fill="#263926"/>
</svg>
