<svg width="200" height="70" viewBox="0 0 200 70" fill="none" xmlns="http://www.w3.org/2000/svg">
<path d="M173.207 54.5731C172.583 54.5731 172.27 54.3441 172.27 53.8861C172.27 53.5114 172.541 53.2616 173.082 53.1367L173.832 53.0118C174.706 52.8452 175.268 52.5954 175.518 52.2623C175.81 51.8876 175.955 51.263 175.955 50.3887V29.4042C175.955 28.6547 175.83 28.1551 175.581 27.9053C175.372 27.6138 174.977 27.4265 174.394 27.3432L173.082 27.1558C172.541 27.1142 172.27 26.8852 172.27 26.4688C172.27 26.1357 172.604 25.9067 173.27 25.7818C174.56 25.5737 175.539 25.2406 176.205 24.7826C176.913 24.3246 177.641 23.7625 178.391 23.0963C178.766 22.7216 179.078 22.5342 179.328 22.5342C179.702 22.5342 179.89 22.784 179.89 23.2837V26.0941C179.89 26.4688 180.015 26.7186 180.265 26.8435C180.556 26.9268 180.868 26.8019 181.201 26.4688C182.867 24.8867 184.324 23.8041 185.573 23.2212C186.864 22.6383 188.217 22.3469 189.633 22.3469C191.506 22.3469 193.005 23.013 194.129 24.3454C195.254 25.6361 195.816 27.5514 195.816 30.0912V50.3887C195.816 51.263 195.94 51.8876 196.19 52.2623C196.482 52.5954 197.065 52.8244 197.939 52.9493L199.313 53.1367C199.771 53.2199 200 53.4697 200 53.8861C200 54.3441 199.75 54.5731 199.251 54.5731H188.758C188.175 54.5731 187.884 54.3441 187.884 53.8861C187.884 53.4697 188.113 53.2199 188.571 53.1367L189.445 53.0118C190.32 52.8868 190.882 52.637 191.132 52.2623C191.423 51.8876 191.569 51.263 191.569 50.3887V30.7781C191.569 28.738 191.194 27.3015 190.445 26.4688C189.695 25.6361 188.633 25.2197 187.259 25.2197C185.927 25.2197 184.72 25.6153 183.637 26.4064C182.596 27.1558 181.763 28.1759 181.139 29.4666C180.514 30.7157 180.202 32.1105 180.202 33.651V50.3887C180.202 51.263 180.327 51.8876 180.577 52.2623C180.868 52.637 181.451 52.866 182.326 52.9493L184.012 53.1367C184.47 53.2199 184.699 53.4489 184.699 53.8237C184.699 54.3233 184.387 54.5731 183.762 54.5731H173.207Z" fill="#263926"/>
<path d="M161.124 55.1352C159.126 55.1352 157.335 54.469 155.753 53.1367C154.171 51.8043 152.901 49.9307 151.944 47.5158C151.028 45.0593 150.57 42.228 150.57 39.0221C150.57 35.7328 151.048 32.8391 152.006 30.341C152.964 27.8428 154.275 25.8859 155.941 24.4703C157.606 23.0547 159.459 22.3469 161.499 22.3469C163.956 22.3469 165.933 23.3669 167.432 25.4071C168.973 27.4056 169.743 30.6741 169.743 35.2124C169.743 36.5864 169.223 37.2734 168.182 37.2734H156.315C155.483 37.2734 155.066 37.7522 155.066 38.7098C155.066 43.1232 155.712 46.4333 157.002 48.64C158.293 50.8467 159.938 51.95 161.936 51.95C163.518 51.95 164.809 51.3879 165.808 50.2638C166.808 49.1396 167.62 47.2452 168.244 44.5805C168.369 44.1225 168.64 43.8935 169.056 43.8935C169.556 43.8935 169.743 44.3098 169.618 45.1426C168.952 48.8482 167.89 51.4504 166.433 52.9493C164.976 54.4066 163.206 55.1352 161.124 55.1352ZM156.128 35.712H162.436C164.434 35.712 165.434 34.6711 165.434 32.5893C165.434 29.883 165.101 27.7595 164.434 26.219C163.768 24.6785 162.769 23.9082 161.437 23.9082C159.813 23.9082 158.439 24.845 157.315 26.7186C156.232 28.5923 155.524 31.257 155.191 34.7127C155.108 35.3789 155.42 35.712 156.128 35.712Z" fill="#263926"/>
<path d="M137.463 55.1352C137.088 55.1352 136.818 54.9062 136.651 54.4482L128.345 26.906C128.053 25.9067 127.762 25.2614 127.47 24.9699C127.221 24.6785 126.804 24.4703 126.221 24.3454L125.285 24.158C124.743 24.0331 124.473 23.7625 124.473 23.3461C124.473 22.9298 124.764 22.7216 125.347 22.7216H135.652C136.235 22.7216 136.526 22.9298 136.526 23.3461C136.526 23.8041 136.256 24.0748 135.714 24.158L134.715 24.2829C133.716 24.4078 133.091 24.6577 132.841 25.0324C132.592 25.3655 132.592 25.99 132.841 26.906L138.025 44.9552C138.15 45.4132 138.358 45.6422 138.65 45.6422C138.941 45.6422 139.149 45.4132 139.274 44.9552L144.333 28.0302C144.666 26.906 144.749 26.0733 144.583 25.532C144.458 24.9491 143.875 24.5744 142.834 24.4078L141.523 24.158C140.981 24.0331 140.711 23.7625 140.711 23.3461C140.711 22.9298 141.002 22.7216 141.585 22.7216H149.517C150.1 22.7216 150.391 22.9506 150.391 23.4086C150.391 23.8249 150.141 24.1164 149.642 24.2829L149.08 24.4703C148.455 24.6785 147.914 25.0532 147.456 25.5945C147.039 26.1357 146.623 27.0725 146.207 28.4049L138.275 54.4482C138.108 54.9062 137.838 55.1352 137.463 55.1352Z" fill="#263926"/>
<path d="M108.994 55.1352C107.246 55.1352 105.809 54.5939 104.685 53.5114C103.561 52.3872 102.999 50.9091 102.999 49.0772C102.999 47.2868 103.561 45.6006 104.685 44.0184C105.809 42.3946 107.35 40.9373 109.307 39.6466C111.264 38.3559 113.491 37.315 115.989 36.5239C116.53 36.3574 116.801 36.0035 116.801 35.4622V29.7789C116.801 27.7804 116.489 26.3647 115.864 25.532C115.24 24.6577 114.386 24.2205 113.304 24.2205C112.263 24.2205 111.305 24.6993 110.431 25.6569C109.598 26.5729 108.994 28.1343 108.62 30.341C108.411 31.6733 107.953 32.6518 107.246 33.2763C106.579 33.8592 105.892 34.1507 105.185 34.1507C104.019 34.1507 103.436 33.5678 103.436 32.402C103.436 31.1945 103.769 30.0079 104.435 28.8421C105.143 27.6346 106.059 26.5521 107.183 25.5945C108.307 24.5952 109.536 23.8041 110.868 23.2212C112.2 22.6383 113.533 22.3469 114.865 22.3469C118.987 22.3469 121.048 24.7409 121.048 29.5291V48.64C121.048 50.3887 121.485 51.263 122.36 51.263C122.901 51.263 123.4 50.9091 123.858 50.2013C124.316 49.4519 124.545 48.2028 124.545 46.4541C124.545 45.7879 124.816 45.4548 125.357 45.4548C125.857 45.4548 126.107 45.8087 126.107 46.5165C126.107 49.556 125.565 51.7627 124.483 53.1367C123.442 54.469 122.255 55.1352 120.923 55.1352C119.924 55.1352 119.133 54.7396 118.55 53.9486C117.967 53.1158 117.571 52.1374 117.363 51.0132C117.322 50.5969 117.134 50.3887 116.801 50.3887C116.51 50.3471 116.218 50.5344 115.927 50.9508C114.927 52.3248 113.907 53.3657 112.867 54.0735C111.826 54.7813 110.535 55.1352 108.994 55.1352ZM110.681 52.2623C111.763 52.2623 112.762 51.8876 113.678 51.1381C114.594 50.3471 115.344 49.3062 115.927 48.0154C116.51 46.7247 116.801 45.2675 116.801 43.6437V39.0845C116.801 38.2934 116.364 38.0644 115.49 38.3975C112.95 39.3135 110.972 40.5834 109.556 42.2072C108.182 43.7894 107.495 45.7046 107.495 47.953C107.495 50.8259 108.557 52.2623 110.681 52.2623Z" fill="#263926"/>
<path d="M70.2616 54.5731C69.6371 54.5731 69.3248 54.3441 69.3248 53.8861C69.3248 53.5114 69.5955 53.2616 70.1367 53.1367L71.5732 52.8869C72.4475 52.7203 73.0096 52.4913 73.2594 52.1999C73.5509 51.9084 73.6966 51.3255 73.6966 50.4511V13.7282C73.6966 12.8539 73.5509 12.271 73.2594 11.9795C73.0096 11.6881 72.4475 11.4591 71.5732 11.2925L70.1367 11.0427C69.5955 10.9178 69.3248 10.668 69.3248 10.2933C69.3248 9.83526 69.6371 9.60626 70.2616 9.60626H81.6907C82.3153 9.60626 82.6275 9.85608 82.6275 10.3557C82.6275 10.7304 82.3985 10.9594 81.9405 11.0427L80.2543 11.2925C79.3799 11.4174 78.797 11.6464 78.5056 11.9795C78.2557 12.3126 78.1308 12.9163 78.1308 13.7907V29.4666C78.1308 30.0495 78.4223 30.341 79.0052 30.341H91.3711C91.954 30.341 92.2454 30.0495 92.2454 29.4666V13.7907C92.2454 12.9163 92.0997 12.3126 91.8083 11.9795C91.5584 11.6464 90.9964 11.4174 90.122 11.2925L88.4357 11.0427C87.9777 10.9594 87.7487 10.7304 87.7487 10.3557C87.7487 9.85608 88.061 9.60626 88.6856 9.60626H100.115C100.739 9.60626 101.051 9.83526 101.051 10.2933C101.051 10.668 100.781 10.9178 100.24 11.0427L98.8031 11.2925C97.9287 11.4591 97.3458 11.6881 97.0544 11.9795C96.8046 12.271 96.6797 12.8539 96.6797 13.7282V50.4511C96.6797 51.3255 96.8046 51.9084 97.0544 52.1999C97.3458 52.4913 97.9287 52.7203 98.8031 52.8869L100.24 53.1367C100.781 53.2616 101.051 53.5114 101.051 53.8861C101.051 54.3441 100.739 54.5731 100.115 54.5731H88.6856C88.061 54.5731 87.7487 54.3233 87.7487 53.8237C87.7487 53.4489 87.9777 53.2199 88.4357 53.1367L90.122 52.8869C90.9964 52.7619 91.5584 52.5329 91.8083 52.1999C92.0997 51.8668 92.2454 51.263 92.2454 50.3887V33.0889C92.2454 32.506 91.954 32.2146 91.3711 32.2146H79.0052C78.4223 32.2146 78.1308 32.506 78.1308 33.0889V50.3887C78.1308 51.263 78.2557 51.8668 78.5056 52.1999C78.797 52.5329 79.3799 52.7619 80.2543 52.8869L81.9405 53.1367C82.3985 53.2199 82.6275 53.4489 82.6275 53.8237C82.6275 54.3233 82.3153 54.5731 81.6907 54.5731H70.2616Z" fill="#263926"/>
<path d="M128.727 69.0156C128.243 69.0156 127.818 68.9427 127.451 68.797C127.084 68.6513 126.776 68.4483 126.526 68.1881C126.276 67.9279 126.087 67.6234 125.96 67.2747C125.835 66.9234 125.772 66.5448 125.772 66.1388C125.772 65.5819 125.887 65.0875 126.116 64.6555C126.347 64.2236 126.671 63.8853 127.088 63.6407C127.504 63.396 127.991 63.2737 128.548 63.2737C128.743 63.2737 128.931 63.2881 129.114 63.3167C129.298 63.3427 129.471 63.3791 129.633 63.426C129.794 63.4702 129.942 63.5197 130.078 63.5743C130.213 63.6263 130.329 63.6784 130.425 63.7304L130.367 64.2652C130.153 64.1481 129.945 64.0531 129.742 63.9803C129.539 63.9074 129.34 63.854 129.145 63.8202C128.952 63.7864 128.762 63.7695 128.575 63.7695C128.244 63.7695 127.943 63.8241 127.669 63.9334C127.399 64.0401 127.163 64.1975 126.963 64.4057C126.762 64.6113 126.608 64.8611 126.498 65.1552C126.392 65.4466 126.338 65.7758 126.338 66.1427C126.338 66.4784 126.385 66.7907 126.479 67.0795C126.575 67.3684 126.721 67.6221 126.916 67.8407C127.114 68.0593 127.365 68.2297 127.669 68.352C127.976 68.4743 128.339 68.5355 128.758 68.5355C128.902 68.5355 129.046 68.529 129.192 68.516C129.337 68.5004 129.482 68.4769 129.625 68.4457C129.771 68.4145 129.913 68.3741 130.05 68.3247C130.191 68.2727 130.326 68.2115 130.456 68.1412L130.523 68.676C130.432 68.715 130.321 68.7554 130.191 68.797C130.061 68.836 129.916 68.8725 129.758 68.9063C129.602 68.9401 129.436 68.9662 129.262 68.9844C129.088 69.0052 128.909 69.0156 128.727 69.0156ZM129.996 68.6838C129.996 68.4106 129.996 68.1738 129.996 67.9734C129.996 67.7704 129.996 67.5675 129.996 67.3645C129.996 67.1251 129.996 66.913 129.996 66.7282C129.996 66.5435 129.996 66.3574 129.996 66.17H130.523C130.523 66.3574 130.523 66.5435 130.523 66.7282C130.523 66.913 130.523 67.1251 130.523 67.3645C130.523 67.5675 130.523 67.7691 130.523 67.9695C130.523 68.1699 130.523 68.4054 130.523 68.676L129.996 68.6838Z" fill="#263926"/>
<path d="M119.45 68.9375C119.45 68.6253 119.45 68.3247 119.45 68.0359C119.45 67.747 119.45 67.4321 119.45 67.0913V65.2293C119.45 64.8832 119.45 64.5658 119.45 64.2769C119.45 63.9855 119.45 63.6836 119.45 63.3713H119.957C120.309 63.8632 120.647 64.3394 120.972 64.8C121.3 65.2606 121.624 65.7147 121.944 66.1622L123.232 67.9695H123.279V65.2293C123.279 64.8832 123.279 64.5658 123.279 64.2769C123.279 63.9855 123.279 63.6836 123.279 63.3713H123.806C123.806 63.6836 123.806 63.9855 123.806 64.2769C123.806 64.5658 123.806 64.8832 123.806 65.2293V67.0913C123.806 67.4321 123.806 67.747 123.806 68.0359C123.806 68.3247 123.806 68.6253 123.806 68.9375H123.31C123.019 68.5264 122.71 68.0931 122.385 67.6377C122.062 67.1823 121.706 66.6814 121.316 66.1349L120.024 64.316H119.977V67.0913C119.977 67.4321 119.977 67.747 119.977 68.0359C119.977 68.3247 119.977 68.6253 119.977 68.9375H119.45Z" fill="#263926"/>
<path d="M116.573 68.9375C116.573 68.6253 116.573 68.3247 116.573 68.0359C116.573 67.747 116.573 67.4321 116.573 67.0913V65.2293C116.573 64.8832 116.573 64.5658 116.573 64.2769C116.573 63.9855 116.573 63.6836 116.573 63.3713H117.127C117.127 63.6836 117.127 63.9855 117.127 64.2769C117.127 64.5658 117.127 64.8832 117.127 65.2293V67.0913C117.127 67.4321 117.127 67.747 117.127 68.0359C117.127 68.3247 117.127 68.6253 117.127 68.9375H116.573Z" fill="#263926"/>
<path d="M111.332 68.9375C111.332 68.6253 111.332 68.3247 111.332 68.0359C111.332 67.747 111.332 67.4321 111.332 67.0913V65.2293C111.332 64.8832 111.332 64.5658 111.332 64.2769C111.332 63.9855 111.332 63.6836 111.332 63.3713H111.882C111.882 63.6836 111.882 63.9855 111.882 64.2769C111.882 64.5658 111.882 64.8832 111.882 65.2293V67.0093C111.882 67.3502 111.882 67.665 111.882 67.9539C111.882 68.2427 111.882 68.5433 111.882 68.8556L111.664 68.4418H112.667C112.971 68.4418 113.241 68.4418 113.475 68.4418C113.709 68.4418 113.925 68.4418 114.123 68.4418C114.323 68.4418 114.528 68.4418 114.736 68.4418V68.9375H111.332Z" fill="#263926"/>
<path d="M106.099 68.9375C106.099 68.6253 106.099 68.3247 106.099 68.0359C106.099 67.747 106.099 67.4321 106.099 67.0913V65.2293C106.099 64.8832 106.099 64.5658 106.099 64.2769C106.099 63.9855 106.099 63.6836 106.099 63.3713H106.649C106.649 63.6836 106.649 63.9855 106.649 64.2769C106.649 64.5658 106.649 64.8832 106.649 65.2293V67.0093C106.649 67.3502 106.649 67.665 106.649 67.9539C106.649 68.2427 106.649 68.5433 106.649 68.8556L106.431 68.4418H107.434C107.738 68.4418 108.008 68.4418 108.242 68.4418C108.476 68.4418 108.692 68.4418 108.89 68.4418C109.09 68.4418 109.295 68.4418 109.503 68.4418V68.9375H106.099Z" fill="#263926"/>
<path d="M100.691 68.9375C100.691 68.6253 100.691 68.3247 100.691 68.0359C100.691 67.747 100.691 67.4321 100.691 67.0913V65.2293C100.691 64.8832 100.691 64.5658 100.691 64.2769C100.691 63.9855 100.691 63.6836 100.691 63.3713H104.083V63.8515C103.817 63.8515 103.532 63.8515 103.228 63.8515C102.923 63.8515 102.566 63.8515 102.154 63.8515H100.933L101.229 63.4455C101.229 63.7578 101.229 64.0596 101.229 64.3511C101.229 64.6425 101.229 64.96 101.229 65.3035V67.0132C101.229 67.3515 101.229 67.665 101.229 67.9539C101.229 68.2427 101.229 68.5433 101.229 68.8556L100.956 68.4574H102.201C102.553 68.4574 102.883 68.4574 103.193 68.4574C103.502 68.4574 103.8 68.4574 104.087 68.4574V68.9375H100.691ZM101.112 66.3457V65.8812H102.213C102.577 65.8812 102.891 65.8812 103.154 65.8812C103.419 65.8812 103.674 65.8812 103.919 65.8812V66.3457C103.661 66.3457 103.4 66.3457 103.134 66.3457C102.871 66.3457 102.562 66.3457 102.205 66.3457H101.112Z" fill="#263926"/>
<path d="M96.9432 69.0156C96.709 69.0156 96.4748 68.9948 96.2406 68.9531C96.009 68.9115 95.7944 68.8582 95.5966 68.7931C95.4014 68.7254 95.244 68.6578 95.1243 68.5901L95.1867 68.0632C95.3611 68.1569 95.5406 68.2388 95.7254 68.3091C95.9102 68.3793 96.1014 68.434 96.2992 68.473C96.497 68.5121 96.7025 68.5316 96.9159 68.5316C97.1605 68.5316 97.383 68.4965 97.5834 68.4262C97.7838 68.3559 97.9425 68.244 98.0596 68.0905C98.1793 67.937 98.2392 67.7314 98.2392 67.4738C98.2392 67.263 98.1806 67.0899 98.0635 66.9546C97.9464 66.8167 97.776 66.6983 97.5522 66.5994C97.331 66.4979 97.063 66.3964 96.7481 66.2949C96.389 66.1831 96.0832 66.062 95.8308 65.9319C95.5784 65.8018 95.3858 65.6431 95.2531 65.4557C95.1204 65.2684 95.054 65.0329 95.054 64.7492C95.054 64.4708 95.1217 64.221 95.257 63.9998C95.3923 63.776 95.5927 63.599 95.8581 63.4689C96.1235 63.3362 96.4501 63.2698 96.8379 63.2698C97.0018 63.2698 97.1631 63.2828 97.3219 63.3089C97.4806 63.3323 97.6315 63.3648 97.7747 63.4065C97.9204 63.4455 98.0518 63.491 98.1689 63.5431C98.286 63.5925 98.3849 63.6433 98.4656 63.6953L98.4031 64.234C98.247 64.1247 98.0804 64.0362 97.9035 63.9685C97.7291 63.8983 97.5548 63.8462 97.3804 63.8124C97.2061 63.7786 97.0421 63.7617 96.8886 63.7617C96.6674 63.7617 96.4605 63.7955 96.268 63.8631C96.078 63.9308 95.9232 64.0362 95.8035 64.1793C95.6864 64.3224 95.6278 64.5072 95.6278 64.7336C95.6278 64.921 95.6773 65.0784 95.7761 65.2059C95.875 65.3308 96.0286 65.4427 96.2367 65.5416C96.4449 65.6405 96.7143 65.7433 97.0447 65.85C97.4923 65.9931 97.8436 66.1375 98.0986 66.2832C98.3563 66.4264 98.5384 66.5903 98.6451 66.7751C98.7544 66.9598 98.8091 67.1849 98.8091 67.4503C98.8091 67.7418 98.744 68.0059 98.6139 68.2427C98.4838 68.4795 98.2808 68.6682 98.005 68.8087C97.7291 68.9466 97.3752 69.0156 96.9432 69.0156Z" fill="#263926"/>
<path d="M88.6924 68.9375C88.6924 68.6253 88.6924 68.3247 88.6924 68.0359C88.6924 67.747 88.6924 67.4321 88.6924 67.0913V65.2293C88.6924 64.8832 88.6924 64.5658 88.6924 64.2769C88.6924 63.9855 88.6924 63.6836 88.6924 63.3713H89.1998C89.5511 63.8632 89.8894 64.3394 90.2147 64.8C90.5426 65.2606 90.8666 65.7147 91.1866 66.1622L92.4747 67.9695H92.5216V65.2293C92.5216 64.8832 92.5216 64.5658 92.5216 64.2769C92.5216 63.9855 92.5216 63.6836 92.5216 63.3713H93.0485C93.0485 63.6836 93.0485 63.9855 93.0485 64.2769C93.0485 64.5658 93.0485 64.8832 93.0485 65.2293V67.0913C93.0485 67.4321 93.0485 67.747 93.0485 68.0359C93.0485 68.3247 93.0485 68.6253 93.0485 68.9375H92.5528C92.2614 68.5264 91.953 68.0931 91.6277 67.6377C91.305 67.1823 90.9485 66.6814 90.5582 66.1349L89.2662 64.316H89.2193V67.0913C89.2193 67.4321 89.2193 67.747 89.2193 68.0359C89.2193 68.3247 89.2193 68.6253 89.2193 68.9375H88.6924Z" fill="#263926"/>
<path d="M84.2898 69.0195C83.7824 69.0195 83.3686 68.931 83.0486 68.7541C82.7311 68.5745 82.4969 68.3247 82.346 68.0046C82.195 67.6846 82.1196 67.3124 82.1196 66.8883C82.1196 66.7764 82.1196 66.6333 82.1196 66.4589C82.1196 66.2846 82.1196 66.092 82.1196 65.8812C82.1196 65.6678 82.1196 65.4505 82.1196 65.2293C82.1196 64.8832 82.1196 64.5658 82.1196 64.2769C82.1196 63.9855 82.1196 63.6836 82.1196 63.3713H82.6699C82.6699 63.6836 82.6699 63.9855 82.6699 64.2769C82.6699 64.5658 82.6699 64.8832 82.6699 65.2293V66.818C82.6699 67.1745 82.722 67.4803 82.8261 67.7353C82.9328 67.9903 83.1045 68.1868 83.3413 68.3247C83.5781 68.46 83.893 68.5277 84.2859 68.5277C84.6841 68.5277 85.0003 68.46 85.2345 68.3247C85.4687 68.1868 85.6378 67.9903 85.7419 67.7353C85.846 67.4803 85.898 67.1719 85.898 66.8102V65.2293C85.898 64.8832 85.898 64.5658 85.898 64.2769C85.898 63.9855 85.898 63.6836 85.898 63.3713H86.4445C86.4445 63.6836 86.4445 63.9855 86.4445 64.2769C86.4445 64.5658 86.4445 64.8832 86.4445 65.2293C86.4445 65.4505 86.4445 65.6678 86.4445 65.8812C86.4445 66.092 86.4445 66.2859 86.4445 66.4628C86.4445 66.6372 86.4445 66.779 86.4445 66.8883C86.4445 67.3124 86.369 67.6846 86.2181 68.0046C86.0672 68.3247 85.833 68.5745 85.5155 68.7541C85.198 68.931 84.7895 69.0195 84.2898 69.0195Z" fill="#263926"/>
<path d="M77.4911 69.0195C77.0253 69.0195 76.6167 68.944 76.2654 68.7931C75.9167 68.6396 75.6253 68.4301 75.3911 68.1647C75.1569 67.8992 74.9812 67.5935 74.8641 67.2474C74.747 66.9013 74.6885 66.5344 74.6885 66.1466C74.6885 65.608 74.7978 65.1213 75.0164 64.6868C75.2376 64.2522 75.555 63.9087 75.9688 63.6563C76.3851 63.4013 76.8848 63.2737 77.4677 63.2737C77.9127 63.2737 78.3069 63.3479 78.6504 63.4962C78.9939 63.642 79.2827 63.8475 79.5169 64.113C79.7538 64.3758 79.932 64.6803 80.0517 65.0264C80.174 65.3725 80.2352 65.7459 80.2352 66.1466C80.2352 66.6931 80.1246 67.1836 79.9034 67.6182C79.6848 68.0502 79.3699 68.3924 78.9588 68.6448C78.5502 68.8946 78.061 69.0195 77.4911 69.0195ZM77.4716 68.5277C77.8541 68.5277 78.1833 68.4626 78.4591 68.3325C78.735 68.2024 78.9614 68.0254 79.1383 67.8017C79.3179 67.5753 79.4506 67.3202 79.5365 67.0366C79.6223 66.7529 79.6653 66.4563 79.6653 66.1466C79.6653 65.8135 79.6184 65.5026 79.5248 65.2137C79.4337 64.9249 79.2958 64.6725 79.111 64.4565C78.9288 64.2379 78.7011 64.0674 78.4279 63.9451C78.1547 63.8228 77.8359 63.7617 77.4716 63.7617C77.0969 63.7617 76.7703 63.8267 76.4918 63.9568C76.216 64.0843 75.987 64.26 75.8048 64.4838C75.6227 64.7076 75.4861 64.9626 75.395 65.2488C75.3039 65.5325 75.2584 65.8318 75.2584 66.1466C75.2584 66.4615 75.3026 66.7621 75.3911 67.0483C75.4796 67.3346 75.6136 67.5896 75.7931 67.8134C75.9727 68.0346 76.2017 68.2089 76.4801 68.3364C76.7586 68.4639 77.0891 68.5277 77.4716 68.5277Z" fill="#263926"/>
<path d="M71.3859 69.0195C70.9487 69.0195 70.5544 68.9466 70.2031 68.8009C69.8544 68.6552 69.5578 68.4535 69.3132 68.1959C69.0686 67.9357 68.8812 67.6312 68.7511 67.2825C68.621 66.9312 68.5559 66.5513 68.5559 66.1427C68.5559 65.5806 68.6717 65.0836 68.9033 64.6516C69.1349 64.2197 69.455 63.8827 69.8635 63.6407C70.2747 63.396 70.747 63.2737 71.2805 63.2737C71.4652 63.2737 71.6448 63.2868 71.8191 63.3128C71.9935 63.3388 72.1574 63.3752 72.311 63.4221C72.4671 63.4689 72.6102 63.5184 72.7403 63.5704C72.8704 63.6224 72.9823 63.6745 73.076 63.7265L73.0214 64.2652C72.821 64.1481 72.6245 64.0531 72.432 63.9803C72.2394 63.9074 72.0494 63.854 71.8621 63.8202C71.6773 63.7864 71.4951 63.7695 71.3156 63.7695C70.8888 63.7695 70.5102 63.8671 70.1797 64.0622C69.8518 64.2548 69.5942 64.5293 69.4068 64.8858C69.2195 65.2397 69.1258 65.66 69.1258 66.1466C69.1258 66.4745 69.1739 66.7829 69.2702 67.0717C69.3665 67.358 69.5109 67.6104 69.7035 67.829C69.8987 68.0476 70.1394 68.2193 70.4256 68.3442C70.7145 68.4665 71.0476 68.5277 71.4249 68.5277C71.5602 68.5277 71.6942 68.5199 71.8269 68.5043C71.9623 68.486 72.0963 68.46 72.229 68.4262C72.3617 68.3898 72.4918 68.3416 72.6193 68.2818C72.7468 68.2219 72.8691 68.1504 72.9862 68.0671L73.0409 68.6018C72.9316 68.6721 72.8106 68.7346 72.6779 68.7892C72.5478 68.8413 72.4111 68.8842 72.268 68.918C72.1275 68.9518 71.9818 68.9766 71.8308 68.9922C71.6825 69.0104 71.5342 69.0195 71.3859 69.0195Z" fill="#263926"/>
<path d="M53.4925 23.5226C53.7662 23.876 53.7986 24.3562 53.7787 24.8041C53.7662 25.0903 53.7314 25.3764 53.6493 25.6526C53.5771 25.894 53.4776 26.098 53.3357 26.312C53.1342 26.6181 52.8878 26.8968 52.6092 27.1356C52.3827 27.3297 52.2832 27.4442 52.1563 27.4989C51.8353 27.6408 51.5243 27.5835 51.4297 27.5636C51.3352 27.5437 51.0714 27.4293 50.4692 26.9117C50.1806 26.6629 49.9243 26.3717 49.7451 26.0308C48.8394 24.2915 50.7504 22.7811 52.4001 22.9852C52.8132 23.0349 53.2337 23.1942 53.49 23.5226H53.4925Z" fill="#263926"/>
<path d="M63.2716 27.4118C62.4829 23.7192 61.0073 20.2132 59.5243 16.742C57.2375 11.3921 54.6522 5.7437 49.7428 2.62337C47.9288 1.47129 45.8834 0.73475 43.7659 0.344087C42.6088 0.132581 41.4318 0.0206078 40.2574 0.00318975C36.3657 -0.061506 32.459 0.859165 29.0028 2.65323C25.1136 4.66875 21.8763 7.71692 18.6913 10.7228C15.1778 14.0422 11.6618 17.3591 8.14835 20.6785C7.3919 18.765 6.63297 16.854 5.87653 14.9404C5.55803 14.1417 4.89116 12.6861 3.76645 13.0668C2.63676 13.45 3.27128 14.9305 3.51016 15.6845C4.27406 18.1155 5.2868 20.4694 6.53095 22.694C2.79601 27.0062 1.99478 33.6301 4.59257 38.7087C3.46537 38.7585 2.33817 38.8057 1.21097 38.8555C0.653588 38.8804 -0.102855 39.1417 0.0116063 39.6866C0.0937202 40.0648 0.556544 40.1967 0.937254 40.2564C2.40535 40.4878 3.87096 40.7192 5.33906 40.9506C8.03886 48.4728 12.1669 55.4748 17.4372 61.4791C18.5619 62.7581 19.7513 64.0072 21.1895 64.9179C24.8399 67.2321 29.6174 67.0454 33.6957 65.6172C38.5205 63.9301 42.6412 60.7102 46.5204 57.3809C50.4768 53.9819 54.2889 50.4012 57.7252 46.4747C59.8005 44.1008 61.7662 41.5478 62.8437 38.5843C64.1351 35.036 64.0629 31.1044 63.2716 27.4118ZM6.6703 38.1613C6.6703 38.1613 5.35896 33.4061 7.75271 27.8547C7.99407 27.2899 8.32253 26.6554 8.73061 26.74C8.89732 26.7723 9.07897 26.9266 9.27306 27.255C11.8659 31.6121 15.0982 35.5859 18.8331 39.0123C19.1566 39.3084 19.495 39.6169 19.6468 40.03C17.7482 39.7314 15.7551 39.4651 13.6724 39.2486C11.2985 38.9998 9.02423 38.8331 6.86189 38.7336C6.82457 38.6266 6.75241 38.42 6.6703 38.1613ZM12.478 51.4338C10.4401 47.9253 8.98939 44.9369 8.14337 42.7596C7.86717 42.053 7.65566 41.4682 7.51881 41.0825C8.82267 41.1671 10.7013 41.3164 12.9732 41.5951C13.7918 41.6946 13.7022 41.6722 14.8269 41.8414C17.9423 42.3043 21.0178 43.0159 24.0187 43.9689C24.1506 44.0113 24.3049 44.0759 24.3322 44.2128C24.3546 44.3248 24.2825 44.4293 24.2128 44.5189C21.3985 48.1418 18.2683 51.5209 14.8742 54.6064C13.8739 53.7256 13.1473 52.5834 12.478 51.4338ZM58.9196 39.8633C58.2104 41.4334 57.1454 42.8144 56.0431 44.1406C51.1561 50.0205 45.3459 55.1315 38.8913 59.2272C37.6173 60.0359 36.2612 60.9541 34.2581 61.611C30.344 62.895 26.9922 62.3401 26.2209 62.1982C20.7466 61.188 17.5093 57.5128 16.5737 56.3657C18.44 54.4049 22.904 49.7119 22.9463 49.6696C22.9637 49.6522 22.9861 49.6423 22.9861 49.6423C23.0134 49.6273 23.0408 49.6249 23.0533 49.6224C24.4168 49.5502 24.6458 49.5826 24.6458 49.5826C24.6955 49.5925 25.2853 49.5975 26.4622 49.6099C26.4622 49.6099 29.4681 49.6448 30.6003 49.7493C30.7197 49.7592 30.9387 49.7841 31.2024 49.8836C31.3418 49.9334 31.4587 49.9931 31.6205 50.0877C31.9066 50.2519 32.0335 50.3539 32.3471 50.5679C32.6531 50.772 33.101 51.0681 33.8127 51.511C36.0148 52.882 37.1694 53.3946 38.2966 53.855C39.1824 54.2158 40.1777 54.5293 41.076 54.2008C41.9743 53.8699 42.5342 52.5984 41.8598 51.9216C41.5786 51.6379 41.1681 51.5309 40.7799 51.4388C38.7495 50.9461 36.7165 50.4535 34.6861 49.9608C38.5454 50.0678 42.4147 49.8513 46.2392 49.3213C47.2321 49.1819 48.2946 48.9878 49.0037 48.2787C49.7129 47.5695 49.79 46.1711 48.9117 45.6884C48.409 45.4146 47.7944 45.5192 47.2346 45.6336C45.4629 45.9944 43.6887 46.3552 41.9171 46.7135C45.2539 44.0262 47.6675 41.5453 49.3048 39.6965C49.9319 38.9899 52.8382 35.6655 52.1937 34.1451C52.0071 33.7022 51.6811 33.5778 51.6811 33.5778C51.3253 33.4335 50.9421 33.6176 50.8003 33.6873C48.8893 34.6055 39.6751 46.4498 39.4586 46.6712C39.4487 46.6812 39.3367 46.7907 39.2098 46.9599C39.17 47.0096 39.1401 47.0544 39.1152 47.0893C39.1053 47.0992 39.0928 47.1117 39.0754 47.1216C39.0456 47.1366 39.0182 47.1366 39.0033 47.1366C38.9809 47.1415 38.9485 47.149 38.9087 47.1565C37.4754 47.4426 35.3405 47.781 31.5732 47.898C29.6796 47.9577 27.2784 47.9627 24.4666 47.8034C25.2181 46.6289 25.9994 45.8003 26.5817 45.2629C27.1863 44.703 27.6939 44.3422 27.8557 44.2302C28.4852 43.7948 29.0401 43.5036 29.3934 43.3319C29.5477 43.2573 29.6647 43.205 29.7119 43.1851C29.7119 43.1851 38.9784 39.0819 41.3821 35.2972C41.4567 35.1803 41.6657 34.8493 41.5463 34.6105C41.4169 34.3517 40.974 34.3318 40.8222 34.3243C38.4061 34.2148 34.8951 37.0216 34.8951 37.0216C32.3247 39.077 30.2569 40.7889 28.7938 42.0181C30.2021 40.1171 31.6404 38.0518 33.0761 35.8198C34.4347 33.7072 35.7237 31.5498 36.9405 29.3527C38.5603 29.1984 40.0981 30.139 41.2402 31.2985C42.3849 32.4556 43.2682 33.8515 44.4327 34.9887C44.796 35.342 45.2141 35.6829 45.7167 35.7526C46.4706 35.8571 47.1699 35.3146 47.5978 34.6851C48.7325 33.0155 48.0433 29.6264 45.9854 27.7975C44.0495 26.0756 41.0063 25.8118 38.2866 27.0933C38.5902 26.4314 38.9336 25.7347 39.3267 25.0131C39.6875 24.3487 40.0533 23.7266 40.4166 23.1518C41.4716 23.0946 42.3177 22.9304 42.885 22.7935C42.885 22.7935 45.2315 22.2287 48.1154 20.3425C48.9042 19.825 49.5113 19.3049 49.5785 19.2477C49.8174 19.0412 49.9841 18.8844 50.1956 18.6804C50.1956 18.6804 52.8905 16.1 52.7835 15.3236C52.776 15.2739 52.7636 15.2266 52.7636 15.2266C52.6491 14.8807 52.241 14.6891 52.1738 14.6568C51.8727 14.515 51.5841 14.5349 51.3029 14.5722C50.2728 14.7115 49.5163 15.0723 49.5163 15.0723C48.5932 15.5152 47.879 16.0179 47.1972 16.5504C46.172 17.3541 45.4604 18.0309 45.3708 18.1155C44.4775 18.964 43.0716 20.1286 40.8297 21.4697C40.8745 21.3752 40.9192 21.2831 40.964 21.1886C41.0959 20.9124 41.2228 20.6337 41.3472 20.355C41.4716 20.0763 41.5936 19.7951 41.713 19.5139C41.83 19.2328 41.9469 18.9491 42.0589 18.6654C42.1734 18.3818 42.2828 18.0956 42.3898 17.8095C42.4968 17.5233 42.6013 17.2347 42.7009 16.946C42.8029 16.6574 42.9024 16.3687 42.997 16.0776C43.0915 15.7865 43.1836 15.4953 43.2732 15.2042C43.3628 14.9106 43.4474 14.617 43.532 14.3234C43.6141 14.0297 43.6937 13.7336 43.7708 13.4375C43.848 13.1414 43.9226 12.8453 43.9923 12.5492C44.0645 12.2506 44.1316 11.952 44.1963 11.6534C44.261 11.3548 44.3232 11.0562 44.3805 10.7551C44.4402 10.4565 44.4949 10.1555 44.5472 9.85437C44.5746 9.70258 44.5994 9.55328 44.6243 9.4015C44.6467 9.24971 44.6592 9.23229 44.6592 9.17506C44.6592 9.12529 44.6517 8.85656 44.4576 8.7197C44.3531 8.64754 44.2436 8.64754 44.1466 8.64505C43.9251 8.6351 43.6962 8.70477 43.522 8.84412C43.0617 9.21239 42.8875 9.89418 42.8676 9.98625C42.6785 10.892 41.8548 13.3902 40.6704 16.8639C40.6704 16.533 40.663 16.2493 40.648 16.0253C40.5958 15.2142 40.4788 13.6341 39.6204 12.7731C39.5283 12.6811 39.4138 12.589 39.2645 12.5094C38.8365 12.2829 38.2543 12.3427 37.9383 12.5218C37.2291 12.9224 37.1544 14.0048 37.1818 14.6941C37.2316 16.0577 37.5376 17.4088 38.0801 18.6605C38.3563 19.3049 38.7047 19.9618 38.6524 20.6635C38.6126 21.1587 38.3762 21.6141 38.1423 22.052C37.667 22.9503 36.9405 24.1322 36.082 25.9412C35.7336 24.8414 35.3156 23.2514 35.0892 21.2831C35.0469 20.9372 35.017 20.6113 34.9797 20.1186C34.9747 20.0564 34.9697 19.9917 34.9672 19.9295C34.8976 18.9715 34.8553 18.0558 34.8154 17.1874C34.696 14.5249 34.6015 12.3078 33.8624 10.6556C33.7928 10.5013 33.7181 10.3545 33.6385 10.2102C33.4519 9.87427 33.1433 9.40896 32.6183 9.25717C31.8071 9.02576 31.0009 9.68018 30.8416 9.80958C30.0305 10.4665 29.7592 11.4344 29.6373 12.1137C29.1969 14.5423 29.9235 17.3541 30.9661 19.9295C30.9909 19.9917 31.0183 20.0564 31.0432 20.1186C33.2254 25.4187 33.6211 26.2896 33.6211 26.2896C33.8276 26.7425 34.3228 27.8348 34.1212 29.1685C34.0267 29.8055 33.7306 30.3928 33.417 30.9551C32.7029 32.2292 31.8643 33.431 30.9163 34.5358C30.4883 31.8833 29.9832 29.2407 29.4059 26.6155C29.1645 25.5182 28.8186 24.3014 27.8407 23.754C26.2781 22.8806 24.3969 24.3636 23.5683 25.9512C22.7721 27.4765 22.3988 29.3577 23.1453 30.9079C23.6256 31.9032 24.5039 32.6422 25.3549 33.3464C26.4573 34.2596 27.888 35.5237 29.6846 36.932C28.525 38.5594 27.368 40.1892 26.2109 41.8191C26.2059 41.824 26.1835 41.8663 26.1338 41.8813C26.089 41.8912 26.0517 41.8738 26.0467 41.8688C25.6336 41.7021 25.0588 41.4458 24.3994 41.085C23.7475 40.7267 23.1802 40.4181 22.5929 39.9006C21.8887 39.2835 21.5006 38.6689 21.2169 38.2284C20.0723 36.4543 19.3059 32.3834 19.2686 32.2117C18.6141 29.1437 17.9572 26.0208 18.216 22.8955C18.2732 22.2088 18.3753 21.5021 18.1936 20.8377C18.012 20.1709 17.4546 19.5463 16.7628 19.5463C15.6456 19.5438 15.1778 20.9696 15.1255 22.0868C14.8792 27.469 16.7803 32.7393 19.3009 37.5019C15.974 33.6276 13.0229 29.4323 10.5048 24.9907C10.3356 24.6946 10.1664 24.3786 10.1863 24.0402C10.2062 23.6818 10.4351 23.3758 10.6566 23.0921C12.5054 20.7307 14.4462 18.4415 16.4742 16.2319C22.675 9.47366 30.655 0.577987 40.9292 2.87469C46.7692 4.18104 51.1113 9.12032 54.055 14.3308C56.613 18.862 58.4443 23.8013 59.4546 28.9048C60.1762 32.5526 60.4499 36.4742 58.9196 39.8633ZM43.089 28.4942C43.2632 28.539 43.4349 28.5913 43.6041 28.6535C44.4576 28.9645 45.2389 29.487 45.749 30.231C46.3636 31.1219 46.5279 32.3536 46.0103 33.3041C45.978 33.3638 45.9381 33.426 45.8759 33.4484C45.7565 33.4932 45.642 33.3837 45.5624 33.2867C44.4054 31.8634 43.2508 30.4401 42.0937 29.0143C41.4617 28.2354 42.6138 28.3723 43.089 28.4942ZM32.7128 18.7948C32.3371 17.9836 32.0933 17.277 31.9365 16.742C31.6727 15.8611 31.5831 15.2739 31.5583 15.0873C31.4712 14.4403 31.4811 13.9974 31.4811 13.8829C31.4911 13.5097 31.516 13.2534 31.5682 12.9747C31.618 12.706 31.6628 12.4198 31.7747 12.171C31.939 11.7977 32.0037 11.7828 32.0261 11.7828C32.1356 11.7828 32.2177 11.9943 32.2948 12.1834C32.3894 12.4298 32.4366 12.6437 32.4565 12.7881C32.5387 13.1713 32.581 13.4848 32.6034 13.6888C32.6705 14.2885 32.678 14.938 32.6805 14.9902C32.678 15.9855 32.6979 17.2521 32.7128 18.7948ZM27.8407 31.9306L27.8208 31.9455C27.7412 31.9853 27.6268 31.9181 27.5546 31.8733C27.5048 31.8435 27.4874 31.8335 27.4874 31.8335C27.3705 31.7514 27.465 31.8335 27.1664 31.632C26.9226 31.4702 26.7384 31.3334 26.7384 31.3334C26.3129 31.0223 26.1014 30.8681 26.0318 30.8083C25.8202 30.6242 25.554 30.4077 25.4271 30.1564C25.2878 29.8827 25.1534 29.6239 25.0937 29.3178C25.029 29.0093 25.024 28.6908 25.0738 28.3798C25.1534 27.9045 26.1437 25.4883 26.8952 26.1303C26.8952 26.1303 26.9723 26.1925 27.0271 26.2846C27.139 26.4638 27.251 26.6678 27.3953 27.4914C27.4227 27.6432 27.4327 27.7104 27.4327 27.7104C27.4376 27.7477 27.4426 27.7776 27.4451 27.7925C27.4451 27.7925 28.0547 31.7514 27.8407 31.9306Z" fill="#263926"/>
</svg>
