<svg width="200" height="38" viewBox="0 0 200 38" fill="none" xmlns="http://www.w3.org/2000/svg">
<path d="M48.2514 37.3869H59.312L45.2266 4.19733C44.705 2.96884 43.8333 1.92105 42.7202 1.18461C41.6071 0.448167 40.3019 0.0556413 38.9672 0.0559694H27.9055L41.9943 33.2455C42.5156 34.4738 43.387 35.5214 44.4996 36.2578C45.6123 36.9943 46.9171 37.3869 48.2514 37.3869V37.3869Z" fill="#263926"/>
<path d="M38.1435 37.3869L24.0558 4.19733C23.5343 2.96919 22.663 1.92165 21.5503 1.18523C20.4377 0.448816 19.133 0.0560838 17.7987 0.0559692H6.737L20.8258 33.2455C21.3471 34.4738 22.2185 35.5214 23.3311 36.2578C24.4438 36.9943 25.7486 37.3869 27.0829 37.3869H38.1435Z" fill="#263926"/>
<path d="M6.72917 23.7966H6.77315C1.92351 23.7966 -1.34717 28.7455 0.544188 33.2072C1.06313 34.43 1.9305 35.473 3.03816 36.2062C4.14582 36.9395 5.44479 37.3305 6.77315 37.3305H16.9529L12.9581 27.92C12.4392 26.6972 11.5718 25.6541 10.4642 24.9209C9.3565 24.1877 8.05753 23.7967 6.72917 23.7966V23.7966Z" fill="#263926"/>
<path d="M59.7383 0H59.7823C54.9327 0 51.662 4.94889 53.5533 9.41055C54.0723 10.6334 54.9397 11.6764 56.0473 12.4096C57.155 13.1428 58.4539 13.5338 59.7823 13.5339H69.962L65.9673 4.12332C65.4483 2.90052 64.581 1.8575 63.4733 1.12427C62.3657 0.391047 61.0667 4.2791e-05 59.7383 0V0Z" fill="#263926"/>
<path d="M68.007 18.6104H56.9543L63.1574 33.2417C63.6794 34.4715 64.5518 35.5205 65.6659 36.2579C66.7799 36.9953 68.0864 37.3886 69.4224 37.3887H80.4751L74.2675 22.7574C73.7456 21.5285 72.8738 20.4801 71.7607 19.7428C70.6476 19.0054 69.3422 18.6117 68.007 18.6104V18.6104Z" fill="#263926"/>
<path d="M94.1732 20.2124H92.6405V8.26984H94.1732L98.3259 15.542H98.3924L102.546 8.26984H104.08V20.2124H102.546V13.124L102.613 11.1221H102.546L98.8097 17.677H97.9074L94.1732 11.1221H94.1067L94.1732 13.124V20.2124Z" fill="#263926"/>
<path d="M118.008 14.2402C118.008 16.0087 117.419 17.4876 116.241 18.6771C115.051 19.8801 113.594 20.4816 111.871 20.4816C110.147 20.4816 108.691 19.8801 107.501 18.6771C106.323 17.4876 105.734 16.0087 105.733 14.2402C105.732 12.4718 106.322 10.9932 107.501 9.80452C108.68 8.60151 110.137 8 111.871 8C113.604 8 115.061 8.60602 116.241 9.81805C117.419 11.0105 118.008 12.4846 118.008 14.2402ZM107.301 14.2402C107.301 15.6199 107.735 16.7598 108.602 17.6598C109.47 18.5598 110.56 19.0109 111.873 19.0132C113.174 19.0132 114.259 18.5621 115.126 17.6598C116.004 16.7696 116.443 15.6297 116.443 14.2402C116.443 12.8508 116.003 11.7132 115.123 10.8275C114.256 9.92519 113.172 9.47406 111.871 9.47406C110.569 9.47406 109.479 9.92519 108.6 10.8275C107.735 11.7237 107.301 12.8613 107.301 14.2402V14.2402Z" fill="#263926"/>
<path d="M123.396 9.73796V20.212H121.861V9.73796H118.526V8.27179H126.731V9.73796H123.396Z" fill="#263926"/>
<path d="M139.524 14.2402C139.524 16.0087 138.935 17.4876 137.756 18.6771C136.566 19.8801 135.109 20.4816 133.387 20.4816C131.652 20.4816 130.195 19.8801 129.016 18.6771C127.838 17.4741 127.248 15.9951 127.249 14.2402C127.249 12.4726 127.838 10.994 129.016 9.80452C130.195 8.60151 131.652 8 133.387 8C135.121 8 136.578 8.60602 137.756 9.81805C138.935 11.0105 139.524 12.4846 139.524 14.2402ZM128.817 14.2402C128.817 15.6199 129.25 16.7598 130.117 17.6598C130.995 18.5621 132.086 19.0132 133.388 19.0132C134.69 19.0132 135.774 18.5621 136.639 17.6598C137.518 16.7696 137.957 15.6297 137.958 14.2402C137.959 12.8508 137.519 11.7132 136.638 10.8275C135.772 9.92519 134.688 9.47406 133.387 9.47406C132.085 9.47406 130.995 9.92519 130.116 10.8275C129.25 11.7237 128.817 12.8613 128.817 14.2402V14.2402Z" fill="#263926"/>
<path d="M142.875 20.2111H141.341V8.26861H145.41C146.392 8.24843 147.342 8.61735 148.054 9.29493C148.698 9.89449 149.088 10.7193 149.14 11.5982C149.193 12.4771 148.905 13.3425 148.337 14.0149C147.815 14.6437 147.095 15.076 146.294 15.2408L146.26 15.2904L149.613 20.1401V20.2077H147.795L144.577 15.3705H142.875V20.2111ZM142.875 9.73703V13.9393H145.343C145.929 13.951 146.496 13.7328 146.922 13.3314C147.132 13.1407 147.299 12.9073 147.411 12.6468C147.524 12.3863 147.579 12.1048 147.573 11.8212C147.57 11.5441 147.513 11.2703 147.404 11.0154C147.295 10.7606 147.137 10.5297 146.938 10.3361C146.74 10.1425 146.505 9.9899 146.248 9.8871C145.99 9.78431 145.715 9.73331 145.438 9.73703H142.875Z" fill="#263926"/>
<path d="M158.353 17.0286C158.353 18.0737 157.969 18.9132 157.202 19.5471C156.435 20.1809 155.49 20.4922 154.367 20.4809C153.421 20.4956 152.498 20.1899 151.748 19.6136C150.993 19.0361 150.47 18.2467 150.181 17.2452L151.647 16.6452C151.74 16.9855 151.88 17.3112 152.063 17.6128C152.232 17.8909 152.443 18.1412 152.689 18.3549C152.924 18.558 153.191 18.7214 153.478 18.8388C153.77 18.9556 154.082 19.0149 154.396 19.0136C155.097 19.0136 155.67 18.8328 156.114 18.4711C156.33 18.2995 156.503 18.0796 156.619 17.8291C156.735 17.5786 156.79 17.3044 156.781 17.0286C156.784 16.7879 156.736 16.5493 156.641 16.328C156.547 16.1068 156.407 15.9078 156.23 15.744C155.886 15.4004 155.241 15.067 154.296 14.7437C153.34 14.4 152.745 14.1666 152.512 14.0433C151.244 13.3982 150.61 12.4474 150.61 11.191C150.61 10.3136 150.96 9.56169 151.66 8.93537C152.375 8.31582 153.25 8.00604 154.286 8.00604C155.197 8.00604 155.987 8.2395 156.654 8.70642C157.282 9.11001 157.753 9.7161 157.988 10.4241L156.554 11.0241C156.42 10.5777 156.142 10.188 155.764 9.91545C155.325 9.61763 154.805 9.46333 154.275 9.47384C153.745 9.48434 153.231 9.65913 152.804 9.97409C152.609 10.1111 152.452 10.2937 152.344 10.5058C152.236 10.718 152.183 10.9532 152.187 11.191C152.186 11.3933 152.229 11.5933 152.313 11.7776C152.396 11.9618 152.518 12.126 152.671 12.2591C153.026 12.5598 153.798 12.9155 154.988 13.326C156.201 13.738 157.066 14.241 157.582 14.835C158.099 15.429 158.356 16.1602 158.353 17.0286Z" fill="#263926"/>
<path d="M161.739 15.3739V20.2111H160.205V8.26863H164.274C164.76 8.25845 165.243 8.3446 165.696 8.52211C166.148 8.69962 166.561 8.96497 166.91 9.30284C167.257 9.62582 167.534 10.0169 167.723 10.4517C167.913 10.8864 168.011 11.3555 168.011 11.8297C168.011 12.3039 167.913 12.773 167.723 13.2078C167.534 13.6426 167.257 14.0336 166.91 14.3566C166.198 15.0333 165.319 15.3717 164.274 15.3717L161.739 15.3739ZM161.739 9.7348V13.9077H164.308C164.59 13.9157 164.871 13.8649 165.132 13.7585C165.393 13.6521 165.629 13.4924 165.825 13.2897C166.113 12.9936 166.306 12.6192 166.381 12.2134C166.457 11.8077 166.411 11.3887 166.248 11.0092C166.086 10.6296 165.816 10.3065 165.47 10.0804C165.125 9.85421 164.721 9.73517 164.308 9.73818L161.739 9.7348Z" fill="#263926"/>
<path d="M181.136 14.2403C181.136 16.0087 180.547 17.4877 179.368 18.6772C178.177 19.8802 176.721 20.4817 174.998 20.4817C173.264 20.4817 171.807 19.8802 170.628 18.6772C169.449 17.4741 168.86 15.9952 168.861 14.2403C168.861 12.4726 169.45 10.9941 170.628 9.80458C171.806 8.60157 173.263 8.00006 174.998 8.00006C176.734 8.00006 178.19 8.60608 179.368 9.81811C180.546 11.0106 181.135 12.4847 181.136 14.2403ZM170.428 14.2403C170.428 15.62 170.862 16.7599 171.729 17.6599C172.607 18.5621 173.697 19.0132 175 19.0132C176.302 19.0132 177.386 18.5621 178.252 17.6599C179.13 16.7696 179.569 15.6298 179.569 14.2403C179.57 12.8508 179.131 11.7132 178.251 10.8275C177.387 9.92525 176.303 9.47413 174.998 9.47413C173.694 9.47413 172.604 9.92525 171.728 10.8275C170.862 11.7238 170.428 12.8614 170.428 14.2403V14.2403Z" fill="#263926"/>
<path d="M184.488 20.2112H182.955V8.26867H187.024C188.006 8.2485 188.956 8.61741 189.667 9.29499C190.312 9.89454 190.701 10.7193 190.754 11.5981C190.807 12.4769 190.52 13.3423 189.952 14.0149C189.429 14.6432 188.708 15.0754 187.908 15.2409L187.874 15.2905L191.227 20.1401V20.2078H189.409L186.19 15.3706H184.488V20.2112ZM184.488 9.73709V13.9394H186.957C187.543 13.9511 188.11 13.7328 188.536 13.3315C188.746 13.1408 188.913 12.9073 189.025 12.6469C189.137 12.3864 189.192 12.1049 189.187 11.8213C189.184 11.5442 189.126 11.2703 189.017 11.0155C188.908 10.7606 188.75 10.5298 188.552 10.3362C188.354 10.1425 188.119 9.98996 187.862 9.88716C187.604 9.78437 187.329 9.73337 187.052 9.73709H184.488Z" fill="#263926"/>
<path d="M196.665 9.73802V20.2121H195.13V9.73802H191.794V8.27185H200V9.73802H196.665Z" fill="#263926"/>
<path d="M94.1732 37.3986H92.6405V25.4572H94.1732V37.3986Z" fill="#263926"/>
<path d="M103.283 37.3986H96.5777V25.4572H98.1127V35.9313H103.283V37.3986Z" fill="#263926"/>
<path d="M111.588 37.3986H104.888V25.4572H106.421V35.9313H111.592L111.588 37.3986Z" fill="#263926"/>
<path d="M117.173 37.6681C115.849 37.6681 114.782 37.2343 113.971 36.3666C113.159 35.511 112.753 34.3768 112.754 32.964V25.4572H114.288V33.0283C114.288 34.0057 114.543 34.7787 115.055 35.3471C115.566 35.9155 116.272 36.199 117.173 36.1975C118.075 36.1975 118.781 35.914 119.292 35.3471C119.802 34.7802 120.058 34.0072 120.059 33.0283V25.4572H121.593V32.9617C121.593 34.4076 121.193 35.5531 120.393 36.3982C119.593 37.2433 118.519 37.6666 117.173 37.6681Z" fill="#263926"/>
<path d="M131.102 34.2132C131.102 35.2583 130.718 36.0978 129.95 36.7316C129.182 37.3654 128.237 37.6778 127.115 37.6688C126.169 37.6828 125.246 37.3772 124.496 36.8015C123.744 36.2233 123.222 35.4338 122.928 34.4331L124.395 33.832C124.487 34.1724 124.628 34.4981 124.811 34.7996C124.98 35.0779 125.191 35.3282 125.437 35.5417C125.671 35.7452 125.938 35.9086 126.226 36.0256C126.518 36.1424 126.83 36.2017 127.144 36.2004C127.844 36.2004 128.417 36.0199 128.862 35.659C129.078 35.4872 129.251 35.2671 129.367 35.0164C129.482 34.7657 129.538 34.4914 129.528 34.2154C129.531 33.9749 129.484 33.7364 129.389 33.5154C129.294 33.2943 129.154 33.0955 128.978 32.932C128.634 32.5868 127.989 32.253 127.044 31.9304C126.087 31.5861 125.493 31.3526 125.26 31.2301C123.992 30.5865 123.358 29.6361 123.358 28.3789C123.358 27.5 123.708 26.7481 124.408 26.1233C125.12 25.5007 125.993 25.1895 127.027 25.1895C127.938 25.1895 128.728 25.4229 129.395 25.8898C130.023 26.2934 130.494 26.8995 130.729 27.6075L129.295 28.2086C129.161 27.762 128.883 27.3719 128.505 27.0989C128.067 26.801 127.546 26.6467 127.016 26.6572C126.486 26.6678 125.972 26.8425 125.545 27.1575C125.35 27.2947 125.192 27.4775 125.085 27.6898C124.977 27.9021 124.924 28.1376 124.928 28.3756C124.927 28.5777 124.97 28.7775 125.054 28.9616C125.137 29.1457 125.259 29.3097 125.412 29.4425C125.767 29.7432 126.54 30.0989 127.729 30.5094C128.942 30.9214 129.807 31.4248 130.323 32.0195C130.84 32.6143 131.099 33.3455 131.102 34.2132Z" fill="#263926"/>
<path d="M136.854 26.9254V37.3995H135.32V26.9254H131.984V25.4592H140.187V26.9254H136.854Z" fill="#263926"/>
<path d="M143.326 37.3994H141.793V25.458H145.862C146.844 25.4375 147.794 25.8061 148.505 26.4832C149.15 27.0828 149.539 27.9076 149.592 28.7865C149.645 29.6654 149.357 30.5308 148.789 31.2032C148.267 31.832 147.546 32.2643 146.746 32.4291L146.712 32.4787L150.065 37.3284V37.3949H148.247L145.028 32.5577H143.326V37.3994ZM143.326 26.9253V31.1276H145.795C146.381 31.1395 146.948 30.9208 147.374 30.5186C147.584 30.3278 147.751 30.0943 147.863 29.8339C147.975 29.5734 148.03 29.2919 148.024 29.0084C148.021 28.7314 147.963 28.4576 147.854 28.2028C147.746 27.9481 147.587 27.7173 147.389 27.5237C147.191 27.3301 146.957 27.1775 146.699 27.0746C146.442 26.9717 146.167 26.9206 145.89 26.9242L143.326 26.9253Z" fill="#263926"/>
<path d="M152.131 37.3986H150.43L154.934 25.4572H156.668L161.171 37.3986H159.473L158.323 34.1629H153.302L152.131 37.3986ZM155.767 27.3418L153.816 32.7283H157.781L155.83 27.3418H155.767Z" fill="#263926"/>
<path d="M165.563 26.9254V37.3995H164.028V26.9254H160.693V25.4592H168.898V26.9254H165.563Z" fill="#263926"/>
<path d="M177.467 25.4573V26.9235H172.03V30.7096H176.933V32.1419H172.03V35.9314H177.467V37.3976H170.496V25.4573H177.467Z" fill="#263926"/>
<path d="M179.535 37.3987V25.4573H183.188C185.011 25.4573 186.477 26.0077 187.587 27.1085C188.696 28.2092 189.25 29.6491 189.247 31.428C189.247 33.2183 188.693 34.6607 187.587 35.7555C186.48 36.8502 185.014 37.398 183.188 37.3987H179.535ZM181.07 26.9246V35.9314H183.188C184.577 35.9314 185.673 35.5337 186.473 34.7382C187.274 33.9427 187.673 32.8393 187.67 31.428C187.67 30.0273 187.27 28.9265 186.469 28.1258C185.668 27.325 184.573 26.9246 183.184 26.9246H181.07Z" fill="#263926"/>
</svg>
