<svg width="254" height="33" viewBox="0 0 254 33" fill="none" xmlns="http://www.w3.org/2000/svg">
<path d="M109.894 21.4522H126.646L117.797 7.16865L101.529 32.967H94.1312L113.917 2.01557C114.348 1.39795 114.921 0.892634 115.588 0.54197C116.255 0.191305 116.996 0.00550027 117.75 0.000120262C118.503 -0.00525974 119.247 0.169942 119.919 0.511048C120.591 0.852154 121.171 1.34923 121.611 1.96063L141.452 32.967H134.054L130.57 27.1986H113.62L109.927 21.4522M186.794 27.1986V0.312529H180.507V29.8466C180.506 30.257 180.588 30.6634 180.749 31.0411C180.909 31.4188 181.145 31.76 181.441 32.0441C181.739 32.3484 182.095 32.5899 182.487 32.7541C182.88 32.9183 183.302 33.0019 183.728 33H212.307L216.033 27.2316H186.761M82.8423 22.3972C85.7722 22.3972 88.582 21.2338 90.6537 19.1629C92.7255 17.0921 93.8894 14.2834 93.8894 11.3548C93.8894 8.42624 92.7255 5.61758 90.6537 3.54675C88.582 1.47591 85.7722 0.312529 82.8423 0.312529H55.3621V32.967H61.6386V6.09189H82.4576C83.8598 6.09189 85.2047 6.64869 86.1962 7.63981C87.1877 8.63092 87.7448 9.97517 87.7448 11.3768C87.7448 12.7785 87.1877 14.1227 86.1962 15.1138C85.2047 16.1049 83.8598 16.6617 82.4576 16.6617H64.7494L83.5018 32.967H92.6143L80.0173 22.3972H82.8423ZM16.7579 32.967H35.7412C39.9986 32.8566 44.0444 31.0885 47.0164 28.0396C49.9885 24.9908 51.6518 20.9022 51.6518 16.6453C51.6518 12.3883 49.9885 8.29976 47.0164 5.25088C44.0444 2.202 39.9986 0.433936 35.7412 0.323516H16.7579C14.578 0.266975 12.4087 0.647331 10.3782 1.44215C8.34761 2.23698 6.49683 3.43018 4.93497 4.95138C3.37311 6.47259 2.13179 8.29101 1.28423 10.2994C0.436659 12.3078 0 14.4655 0 16.6453C0 18.825 0.436659 20.9827 1.28423 22.9911C2.13179 24.9995 3.37311 26.8179 4.93497 28.3391C6.49683 29.8603 8.34761 31.0535 10.3782 31.8484C12.4087 32.6432 14.578 33.0235 16.7579 32.967ZM35.3126 27.2206H17.1756C14.4316 27.1321 11.8295 25.9804 9.91973 24.0088C8.00993 22.0373 6.94213 19.4005 6.94213 16.6562C6.94213 13.9119 8.00993 11.2752 9.91973 9.30369C11.8295 7.33215 14.4316 6.18036 17.1756 6.09189H35.3126C36.7292 6.04622 38.1405 6.28567 39.4627 6.79603C40.7849 7.30638 41.9909 8.07722 43.0092 9.06272C44.0274 10.0482 44.837 11.2283 45.39 12.5328C45.9429 13.8372 46.2278 15.2395 46.2278 16.6562C46.2278 18.073 45.9429 19.4753 45.39 20.7797C44.837 22.0842 44.0274 23.2643 43.0092 24.2498C41.9909 25.2353 40.7849 26.0061 39.4627 26.5165C38.1405 27.0268 36.7292 27.2663 35.3126 27.2206ZM154.566 32.967H173.945L177.616 27.2206H154.994C153.578 27.2663 152.166 27.0268 150.844 26.5165C149.522 26.0061 148.316 25.2353 147.298 24.2498C146.279 23.2643 145.47 22.0842 144.917 20.7797C144.364 19.4753 144.079 18.073 144.079 16.6562C144.079 15.2395 144.364 13.8372 144.917 12.5328C145.47 11.2283 146.279 10.0482 147.298 9.06272C148.316 8.07722 149.522 7.30638 150.844 6.79603C152.166 6.28567 153.578 6.04622 154.994 6.09189H173.406L177.121 0.323516H154.566C152.386 0.266975 150.216 0.647331 148.186 1.44215C146.155 2.23698 144.305 3.43018 142.743 4.95138C141.181 6.47259 139.939 8.29101 139.092 10.2994C138.244 12.3078 137.808 14.4655 137.808 16.6453C137.808 18.825 138.244 20.9827 139.092 22.9911C139.939 24.9995 141.181 26.8179 142.743 28.3391C144.305 29.8603 146.155 31.0535 148.186 31.8484C150.216 32.6432 152.386 33.0235 154.566 32.967ZM231.367 27.2206C229.064 27.2215 226.824 26.4708 224.987 25.0825C223.149 23.6943 221.816 21.7445 221.189 19.5294H248.031L251.725 13.7721H221.189C221.814 11.5561 223.147 9.60524 224.985 8.21674C226.823 6.82825 229.064 6.07821 231.367 6.0809H249.79L253.472 0.312529H230.939C226.681 0.422949 222.635 2.19101 219.663 5.23989C216.691 8.28877 215.028 12.3774 215.028 16.6343C215.028 20.8912 216.691 24.9798 219.663 28.0287C222.635 31.0775 226.681 32.8456 230.939 32.956H250.318L254 27.2096H231.356" fill="black"/>
</svg>
