<svg width="200" height="49" viewBox="0 0 200 49" fill="none" xmlns="http://www.w3.org/2000/svg">
<path d="M83.7678 15.3181C83.7678 19.4716 81.0099 23.1599 73.5004 23.1599H73.0352V28.5429C73.0352 29.3071 72.6032 29.7391 71.839 29.7391H70.0447C69.2804 29.7391 68.8484 29.3071 68.8484 28.5429V8.47313C68.8484 7.70888 69.2804 7.27692 70.0447 7.27692H73.2013C80.9435 7.27692 83.7678 11.0981 83.7678 15.3181ZM79.6143 15.3181C79.6143 13.1251 78.551 11.2975 74.3643 11.2975H73.002V19.1393H74.6634C78.551 19.1393 79.6143 17.4779 79.6143 15.3181Z" fill="#263926"/>
<path d="M97.4578 25.9843C98.0891 25.5523 98.5211 25.4194 99.1192 26.084L99.5844 26.5824C100.116 27.1473 100.116 27.6789 99.4847 28.2438C98.4214 29.2074 95.8296 30.0049 93.3375 30.0049C87.8216 30.0049 85.0637 25.9843 85.0637 22.0966C85.0637 18.3086 87.6223 14.4542 92.8723 14.4542C98.7537 14.4542 100.548 19.4051 100.515 21.9637C100.515 22.6947 100.315 23.1931 99.3518 23.1931H89.2837C89.5827 25.7849 91.1777 27.1473 93.8027 27.1473C95.5638 27.1473 96.6271 26.5492 97.4578 25.9843ZM89.4166 20.6013H96.4609C96.029 18.6077 95.0654 17.4447 93.0717 17.4447C90.9119 17.4447 89.8153 18.7738 89.4166 20.6013Z" fill="#263926"/>
<path d="M116.83 6.01424L118.657 5.41614C119.455 5.15031 120.02 5.54905 120.02 6.41298V28.5429C120.02 29.3071 119.588 29.7391 118.823 29.7391H118.757C118.159 29.7391 117.727 29.6061 117.295 29.1742L116.531 28.5096C114.969 29.5397 113.407 30.0381 111.58 30.0381C106.396 30.0381 103.572 26.1504 103.572 22.2628C103.572 18.4083 106.396 14.5206 111.646 14.5206C113.108 14.5206 114.437 14.8197 115.8 15.5839V7.37659C115.833 6.6788 116.165 6.21361 116.83 6.01424ZM116.132 22.2295C116.132 19.2722 114.171 18.076 111.978 18.076C109.054 18.076 107.792 20.1694 107.792 22.2295C107.792 24.3229 109.054 26.4163 111.945 26.4163C114.171 26.4495 116.132 25.22 116.132 22.2295Z" fill="#263926"/>
<path d="M123.941 9.47001C123.941 7.97475 125.17 6.81177 126.632 6.81177C128.094 6.81177 129.257 7.97475 129.257 9.47001C129.257 10.9653 128.094 12.1283 126.632 12.1283C125.17 12.1283 123.941 10.9653 123.941 9.47001ZM125.702 14.7533H127.496C128.26 14.7533 128.692 15.1852 128.692 15.9495V28.5097C128.692 29.2739 128.26 29.7059 127.496 29.7059H125.702C124.937 29.7059 124.505 29.2739 124.505 28.5097V15.9495C124.505 15.1852 124.937 14.7533 125.702 14.7533Z" fill="#263926"/>
<path d="M134.939 35.3214C134.341 34.6568 134.441 34.1584 134.972 33.6267L136.202 32.4305C136.866 31.766 137.398 32.1647 137.863 32.497C138.461 32.929 139.126 33.1283 139.923 33.1283C141.684 33.1283 144.11 32.0983 144.11 29.7391V28.9084C142.88 29.5729 141.618 29.9717 139.923 29.9717C134.706 29.9717 131.882 26.084 131.882 22.1963C131.882 18.3418 134.706 14.4542 139.956 14.4542C141.418 14.4542 142.748 14.7532 144.11 15.5175C144.11 15.0523 144.542 14.7532 145.306 14.7532H147.1C147.865 14.7532 148.297 15.1852 148.297 15.9494V27.1805C148.297 34.823 143.545 36.9495 139.823 36.9495C137.929 36.9495 135.936 36.3847 134.939 35.3214ZM144.11 22.2295C144.11 19.239 142.449 18.076 140.255 18.076C137.331 18.076 136.069 20.1694 136.069 22.2295C136.069 24.3229 137.331 26.4163 140.222 26.4163C142.415 26.4163 144.11 25.22 144.11 22.2295Z" fill="#263926"/>
<path d="M164.612 15.9162C165.21 16.5476 165.11 17.0792 164.578 17.6108L163.382 18.7738C162.684 19.4716 162.12 19.0397 161.721 18.7074C161.156 18.2754 160.691 18.0428 159.926 18.0428C158.298 18.0428 157.002 19.1061 157.002 22.8276V28.5096C157.002 29.2739 156.57 29.7059 155.806 29.7059H153.979C153.214 29.7059 152.782 29.2739 152.782 28.5096V15.9494C152.782 15.1852 153.214 14.7532 153.979 14.7532H155.773C156.537 14.7532 156.969 15.1852 156.969 15.9494V16.3814C158.132 15.3181 159.528 14.5871 161.023 14.5871C162.252 14.5871 163.781 15.0523 164.612 15.9162Z" fill="#263926"/>
<path d="M178.434 25.9843C179.066 25.5523 179.498 25.4194 180.096 26.084L180.561 26.5824C181.093 27.1473 181.093 27.6789 180.461 28.2438C179.398 29.2074 176.806 30.0049 174.314 30.0049C168.798 30.0049 166.04 25.9843 166.04 22.0966C166.04 18.3086 168.599 14.4542 173.849 14.4542C179.73 14.4542 181.525 19.4051 181.491 21.9637C181.491 22.6947 181.292 23.1931 180.328 23.1931H170.26C170.559 25.7849 172.154 27.1473 174.779 27.1473C176.54 27.1473 177.604 26.5492 178.434 25.9843ZM170.427 20.6013H177.438C177.006 18.6077 176.042 17.4447 174.048 17.4447C171.922 17.4447 170.825 18.7738 170.427 20.6013Z" fill="#263926"/>
<path d="M196.909 25.9843C197.541 25.5523 197.973 25.4194 198.571 26.084L199.036 26.5824C199.567 27.1473 199.568 27.6789 198.936 28.2438C197.873 29.2074 195.281 30.0049 192.789 30.0049C187.273 30.0049 184.548 25.9843 184.548 22.0966C184.548 18.3086 187.107 14.4542 192.357 14.4542C198.238 14.4542 200.033 19.4051 199.999 21.9637C199.999 22.6947 199.8 23.1931 198.836 23.1931H188.768C189.067 25.7849 190.662 27.1473 193.287 27.1473C195.048 27.1473 196.079 26.5492 196.909 25.9843ZM188.901 20.6013H195.946C195.514 18.6077 194.55 17.4447 192.556 17.4447C190.397 17.4447 189.3 18.7738 188.901 20.6013Z" fill="#263926"/>
<path d="M104.436 45.8215H102.675V48.38H101.844V41.1031H104.569C106.197 41.1031 107.293 41.967 107.293 43.4291C107.293 44.9908 105.997 45.8215 104.436 45.8215ZM104.535 41.8673H102.675V45.0572H104.469C105.665 45.0572 106.463 44.4259 106.463 43.4623C106.463 42.399 105.698 41.8673 104.535 41.8673Z" fill="#263926"/>
<path d="M117.627 48.3801H116.73L115.866 46.4528H111.912L111.048 48.3801H110.217L113.54 41.0699H114.304L117.627 48.3801ZM113.939 42.0003L112.277 45.6886H115.6L113.939 42.0003Z" fill="#263926"/>
<path d="M122.047 41.1031V48.38H121.216V41.1031H122.047V41.1031Z" fill="#263926"/>
<path d="M131.583 41.1031H132.38V48.38H131.716L127.031 42.4322V48.38H126.266V41.1031H127.031L131.616 46.918V41.1031H131.583Z" fill="#263926"/>
<path d="M139.292 48.38H138.461V41.8673H136.035V41.1031H141.751V41.8673H139.325V48.38H139.292Z" fill="#263926"/>
<path d="M146.236 41.1031V48.38H145.406V41.1031H146.236V41.1031Z" fill="#263926"/>
<path d="M155.773 41.1031H156.57V48.38H155.906L151.221 42.4322V48.38H150.423V41.1031H151.187L155.773 46.918V41.1031Z" fill="#263926"/>
<path d="M164.08 48.4797C161.787 48.4797 160.392 46.8183 160.392 44.7249C160.392 42.7312 161.854 40.9702 164.047 40.9702C165.276 40.9702 166.04 41.3357 166.738 41.9338L166.207 42.5651C165.642 42.0667 165.01 41.7344 163.98 41.7344C162.385 41.7344 161.222 43.0967 161.222 44.7249C161.222 46.4528 162.319 47.7487 164.08 47.7487C164.911 47.7487 165.675 47.4164 166.173 47.0177V45.2233H163.947V44.4923H166.938V47.3832C166.306 47.9813 165.309 48.4797 164.08 48.4797Z" fill="#263926"/>
<path d="M59.9434 15.451C59.4117 15.2849 58.9798 15.1188 58.5146 15.0191C57.5177 14.8529 56.5209 14.72 55.5241 14.6868C54.062 14.5871 53.1316 13.8893 52.6332 12.4937C51.9022 10.5001 50.4402 9.17094 48.6458 8.14087C48.4465 8.04119 48.2803 7.90827 48.081 7.80859C48.1142 7.31017 48.1807 6.84498 48.1807 6.41301C48.081 4.45256 47.9813 4.41933 47.7487 2.29273C47.6822 1.82754 47.7819 1.32912 47.4496 0.863929C47.0509 1.16298 46.1205 1.72786 45.7218 2.02691C45.6221 1.39558 45.755 0.564877 45.2566 0C44.8579 0.398736 44.4591 0.764245 44.0936 1.16298C41.9006 3.788 41.3357 4.91775 39.6411 7.90827C39.0429 8.97157 38.4781 10.0681 37.7803 11.0649C36.6838 12.6931 36.285 14.4874 36.7502 16.4479C36.7834 16.6472 36.8499 16.8466 36.8831 17.046C32.6299 21.0333 26.9147 23.459 20.6346 23.459C11.7627 23.4922 4.12028 18.7074 0 11.6298L0.0996841 12.095C1.19621 17.3783 4.05382 22.0302 8.04119 25.3862C4.12028 32.198 1.86077 40.073 1.86077 48.4797L12.2944 48.4133V42.5319L11.2975 43.5287L9.46999 41.7012L21.5982 29.5065L21.6315 29.4733L21.6647 29.5065L33.8261 41.668L31.9986 43.4955L31.0018 42.4987V48.0477L39.4085 48.0145C39.5081 38.8436 42.2661 30.3372 46.9844 23.1932C47.5493 22.4954 48.3136 21.997 49.244 21.8641C50.3405 21.6979 53.0652 21.9637 54.2282 22.0634L55.0256 21.8973C56.8864 21.4653 57.0193 21.3656 58.0826 19.9368L58.3484 19.2723C59.1791 18.1425 59.9766 17.0128 59.9434 15.451Z" fill="#263926"/>
</svg>
