<svg width="184" height="51" viewBox="0 0 184 51" fill="none" xmlns="http://www.w3.org/2000/svg">
<path fill-rule="evenodd" clip-rule="evenodd" d="M31.3807 28.8446V23.8144H28.8436V36.8153C28.8436 38.3918 29.3111 39.9328 30.1868 41.2436C31.0626 42.5544 32.3073 43.576 33.7636 44.1793C35.22 44.7825 36.8225 44.9404 38.3685 44.6328C39.9145 44.3253 41.3346 43.5662 42.4493 42.4514C43.5639 41.3367 44.3229 39.9165 44.6305 38.3703C44.938 36.8242 44.7802 35.2215 44.1769 33.7651C43.5737 32.3086 42.5522 31.0638 41.2415 30.1879C39.9309 29.3121 38.3899 28.8446 36.8136 28.8446H33.0764V31.3819H36.8136C37.8882 31.3819 38.9385 31.7006 39.832 32.2976C40.7254 32.8947 41.4218 33.7432 41.833 34.7361C42.2442 35.7289 42.3518 36.8213 42.1421 37.8753C41.9325 38.9293 41.4151 39.8974 40.6553 40.6573C39.8955 41.4172 38.9274 41.9346 37.8735 42.1443C36.8197 42.3539 35.7273 42.2463 34.7345 41.8351C33.7418 41.4239 32.8933 40.7275 32.2963 39.8339C31.6994 38.9404 31.3807 37.8899 31.3807 36.8153V28.8446ZM28.8436 22.113H36.8136C38.3899 22.113 39.9309 21.6456 41.2415 20.7697C42.5522 19.8939 43.5737 18.649 44.1769 17.1926C44.7802 15.7361 44.938 14.1335 44.6305 12.5873C44.3229 11.0412 43.5639 9.62095 42.4493 8.50623C41.3346 7.39151 39.9145 6.63238 38.3685 6.32483C36.8225 6.01727 35.22 6.17512 33.7636 6.7784C32.3073 7.38168 31.0626 8.40331 30.1868 9.71408C29.3111 11.0248 28.8436 12.5659 28.8436 14.1423V17.8799H31.3807V14.1423C31.3807 13.0677 31.6994 12.0172 32.2963 11.1237C32.8933 10.2302 33.7418 9.5338 34.7345 9.12256C35.7273 8.71132 36.8197 8.60373 37.8735 8.81337C38.9274 9.02302 39.8955 9.5405 40.6553 10.3004C41.4151 11.0602 41.9325 12.0284 42.1421 13.0823C42.3518 14.1363 42.2442 15.2288 41.833 16.2216C41.4218 17.2144 40.7254 18.063 39.832 18.66C38.9385 19.2571 37.8882 19.5757 36.8136 19.5757H23.8065V22.113H28.8436ZM22.1126 22.113V14.1423C22.113 12.5654 21.6457 11.0237 20.7699 9.71235C19.8941 8.401 18.6491 7.37885 17.1923 6.7752C15.7356 6.17155 14.1326 6.01351 12.586 6.32107C11.0395 6.62863 9.61884 7.38798 8.50384 8.50307C7.38885 9.61816 6.62957 11.0389 6.32204 12.5856C6.0145 14.1323 6.17252 15.7354 6.77612 17.1923C7.37972 18.6492 8.40178 19.8943 9.71302 20.7702C11.0243 21.6461 12.5658 22.1134 14.1426 22.113H17.878V19.5757H14.1426C13.068 19.5761 12.0174 19.2577 11.1238 18.6609C10.2301 18.0641 9.53345 17.2157 9.12196 16.2229C8.71048 15.2301 8.60262 14.1376 8.81204 13.0835C9.02147 12.0294 9.53875 11.0611 10.2985 10.301C11.0582 9.54097 12.0263 9.02331 13.0802 8.81351C14.1341 8.60371 15.2266 8.7112 16.2194 9.12239C17.2123 9.53357 18.0609 10.23 18.6579 11.1235C19.255 12.0171 19.5737 13.0676 19.5737 14.1423V27.1432H22.1126V22.113ZM22.1126 28.8446H14.1426C12.5664 28.845 11.0257 29.3128 9.71525 30.1888C8.40483 31.0649 7.38359 32.3099 6.78064 33.7664C6.1777 35.2228 6.02013 36.8254 6.32786 38.3715C6.63559 39.9175 7.39481 41.3376 8.5095 42.4521C9.6242 43.5666 11.0443 44.3256 12.5903 44.633C14.1363 44.9404 15.7387 44.7824 17.1949 44.1791C18.6511 43.5758 19.8957 42.5541 20.7714 41.2434C21.6471 39.9327 22.1145 38.3917 22.1145 36.8153V33.0778H19.5737V36.8153C19.5737 37.89 19.255 38.9406 18.6579 39.8341C18.0609 40.7277 17.2123 41.4241 16.2194 41.8353C15.2266 42.2465 14.1341 42.354 13.0802 42.1442C12.0263 41.9344 11.0582 41.4167 10.2985 40.6566C9.53875 39.8966 9.02147 38.9283 8.81204 37.8742C8.60262 36.8201 8.71048 35.7276 9.12196 34.7348C9.53345 33.742 10.2301 32.8935 11.1238 32.2967C12.0174 31.6999 13.068 31.3816 14.1426 31.3819H27.1498V28.8446H22.1126Z" fill="black"/>
<path fill-rule="evenodd" clip-rule="evenodd" d="M43.4956 43.4957C47.0582 39.932 49.4843 35.3919 50.4669 30.4493C51.4496 25.5068 50.9447 20.3838 49.0162 15.7282C47.0877 11.0726 43.8221 7.09342 39.6324 4.29384C35.4426 1.49426 30.5169 0 25.478 0C20.4392 0 15.5135 1.49426 11.3237 4.29384C7.13401 7.09342 3.86843 11.0726 1.9399 15.7282C0.01138 20.3838 -0.49347 25.5068 0.489189 30.4493C1.47185 35.3919 3.89789 39.932 7.46054 43.4957C9.82597 45.8632 12.6347 47.7413 15.7263 49.0227C18.8178 50.3041 22.1315 50.9636 25.478 50.9636C28.8246 50.9636 32.1383 50.3041 35.2298 49.0227C38.3214 47.7413 41.1301 45.8632 43.4956 43.4957ZM41.5835 9.37532C44.7682 12.5608 46.9368 16.6192 47.8153 21.0373C48.6937 25.4554 48.2425 30.0348 46.5186 34.1965C44.7947 38.3581 41.8756 41.9151 38.1305 44.4176C34.3853 46.9201 29.9823 48.2559 25.478 48.2559C20.9738 48.2559 16.5708 46.9201 12.8256 44.4176C9.08045 41.9151 6.16138 38.3581 4.43751 34.1965C2.71364 30.0348 2.26239 25.4554 3.14083 21.0373C4.01926 16.6192 6.18792 12.5608 9.37259 9.37532C11.4872 7.25945 13.998 5.58099 16.7614 4.43584C19.5248 3.29068 22.4868 2.70126 25.478 2.70126C28.4693 2.70126 31.4313 3.29068 34.1947 4.43584C36.9581 5.58099 39.4689 7.25945 41.5835 9.37532Z" fill="black"/>
<path fill-rule="evenodd" clip-rule="evenodd" d="M65.7135 10.4677H69.7077C73.0954 10.4677 73.1158 15.4702 69.7077 15.4702H65.7135V10.4677ZM65.6026 43.2973V38.2929H72.3928V35.935H65.6026V32.2456H72.7626V29.7915H63.0507V43.2917L65.6026 43.2973ZM87.741 40.7858H80.1464V37.7326H87.471V35.3562H80.1464V32.2252H87.741V29.7527H77.6149V43.2973H87.741V40.7858ZM104.837 43.1234L100.741 38.5001C103.309 37.9785 104.16 36.0959 104.16 34.2466C104.16 31.8997 102.479 29.773 99.291 29.7545C97.1459 29.773 95.0009 29.7545 92.8558 29.7545V43.2991H95.4077V38.7756H97.8616L101.795 43.2973H104.829V43.1234H104.837ZM99.2891 32.1291C100.892 32.1291 101.608 33.2146 101.608 34.302C101.608 35.3895 100.913 36.4769 99.2891 36.4769H95.4059V32.1383L99.2891 32.1291ZM113.099 43.2973H115.651V32.0717H119.941V29.7527H108.822V32.0717H113.11V43.2973H113.099ZM127.162 43.2973V29.7527H124.632V43.2973H127.162ZM132.684 29.7527V43.2973H142.19V40.9393H135.235V29.7527H132.684ZM149.663 43.2973V29.7527H147.133V43.2973H149.663ZM159.299 43.2973H161.851V32.0717H166.146V29.7527H155.012V32.0717H159.304V43.2973H159.299ZM173.883 29.7527H170.851V29.8692L176.049 37.703V43.2973H178.601V37.703L183.991 29.8692V29.7527H180.92L177.325 35.3469L173.885 29.7527H173.883ZM69.7059 7.93037C67.4869 7.91003 65.2678 7.93037 63.0488 7.93037V22.0686H65.7117V17.9094H69.7059C76.6237 17.9094 76.6033 7.92297 69.7059 7.92297V7.93037ZM82.6095 22.0686V7.92667H79.9744V22.0649L82.6095 22.0686ZM97.6508 16.7055L90.7311 7.93962H88.575V22.0779H91.2378V12.5352L98.6604 22.0686H100.315V7.92667H97.6526V16.6926L97.6508 16.7055ZM115.294 16.7055L108.374 7.93962H106.218V22.0779H108.881V12.5352L116.303 22.0686H117.957V7.92667H115.294V16.6926V16.7055ZM134.873 22.0779H137.776L131.445 7.92667H128.541L122.208 22.0649H125.095L126.304 19.4019H133.686L134.877 22.0649L134.873 22.0779ZM132.615 16.9219H127.371L129.993 10.8986L132.615 16.9219ZM152.032 18.455C151.073 19.3656 149.803 19.8774 148.481 19.8864C144.992 19.8864 143.64 17.4453 143.62 15.1058C143.599 12.7664 145.073 10.2051 148.481 10.2051C149.748 10.1869 150.972 10.6647 151.891 11.5366L153.664 9.82225C152.987 9.13821 152.18 8.59528 151.292 8.22484C150.403 7.8544 149.45 7.6638 148.487 7.66406C143.381 7.66406 140.981 11.4256 140.997 15.1058C141.014 18.786 143.235 22.3867 148.479 22.3867C150.513 22.3867 152.392 21.7209 153.842 20.2895L152.033 18.4531L152.032 18.455ZM158.4 7.92667V22.0649H168.323V19.6034H161.063V7.92667H158.4ZM183.991 19.4425H176.064V16.2561H183.714V13.7762H176.064V10.501H183.991V7.91188H173.423V22.0501H183.991V19.4425Z" fill="black"/>
</svg>
