<svg width="200" height="38" viewBox="0 0 200 38" fill="none" xmlns="http://www.w3.org/2000/svg">
<path d="M200 9.47357V27.8582H197.638V9.47357H200Z" fill="#263926"/>
<path d="M189.524 28.2666C187.676 28.2666 186.152 27.6332 184.954 26.3665C183.756 25.0998 183.156 23.4993 183.156 21.5649C183.156 19.6477 183.739 18.0558 184.903 16.789C186.067 15.5052 187.556 14.8633 189.37 14.8633C191.236 14.8633 192.717 15.471 193.812 16.6863C194.925 17.8846 195.481 19.5707 195.481 21.7447L195.456 22.0015H185.57C185.604 23.2339 186.015 24.2268 186.803 24.98C187.59 25.7332 188.532 26.1098 189.627 26.1098C191.133 26.1098 192.315 25.3566 193.17 23.8502L195.276 24.8773C194.711 25.9386 193.924 26.7688 192.914 27.3679C191.921 27.967 190.791 28.2666 189.524 28.2666ZM185.75 20.05H192.965C192.897 19.177 192.537 18.458 191.887 17.8932C191.253 17.3111 190.397 17.0201 189.319 17.0201C188.429 17.0201 187.659 17.294 187.008 17.8418C186.375 18.3896 185.955 19.1256 185.75 20.05Z" fill="#263926"/>
<path d="M169.96 15.2741H172.22V17.0201H172.322C172.682 16.4039 173.229 15.8904 173.966 15.4795C174.719 15.0687 175.498 14.8633 176.302 14.8633C177.843 14.8633 179.024 15.3083 179.846 16.1985C180.684 17.0715 181.104 18.3211 181.104 19.9473V27.8558H178.741V20.1014C178.69 18.0472 177.654 17.0201 175.635 17.0201C174.693 17.0201 173.906 17.4053 173.272 18.1756C172.639 18.9288 172.322 19.836 172.322 20.8973V27.8558H169.96V15.2741Z" fill="#263926"/>
<path d="M158.582 24.0042C158.582 24.6205 158.839 25.134 159.352 25.5449C159.883 25.9557 160.499 26.1611 161.201 26.1611C162.194 26.1611 163.076 25.7931 163.846 25.057C164.633 24.3209 165.027 23.4565 165.027 22.4636C164.291 21.8816 163.264 21.5906 161.946 21.5906C160.987 21.5906 160.183 21.8217 159.532 22.2839C158.899 22.7461 158.582 23.3195 158.582 24.0042ZM161.638 14.8633C163.384 14.8633 164.762 15.334 165.772 16.2755C166.782 17.1999 167.287 18.4752 167.287 20.1014V27.8558H165.027V26.1098H164.924C163.949 27.5477 162.648 28.2666 161.021 28.2666C159.635 28.2666 158.471 27.8558 157.529 27.0341C156.605 26.2125 156.143 25.1854 156.143 23.9529C156.143 22.6519 156.631 21.6163 157.606 20.846C158.599 20.0757 159.917 19.6905 161.561 19.6905C162.964 19.6905 164.12 19.9473 165.027 20.4608V19.9216C165.027 19.1 164.702 18.4067 164.051 17.8418C163.401 17.2598 162.639 16.9688 161.766 16.9688C160.448 16.9688 159.404 17.5251 158.633 18.6378L156.554 17.3283C157.701 15.6849 159.395 14.8633 161.638 14.8633Z" fill="#263926"/>
<path d="M145.646 20.4119V27.8582H143.284V9.47357H149.549C151.141 9.47357 152.493 10.0042 153.606 11.0655C154.736 12.1268 155.301 13.4193 155.301 14.9427C155.301 16.5005 154.736 17.8014 153.606 18.8456C152.51 19.8898 151.158 20.4119 149.549 20.4119H145.646ZM145.646 11.7331V18.1524H149.6C150.542 18.1524 151.321 17.8357 151.937 17.2023C152.57 16.5689 152.887 15.8158 152.887 14.9427C152.887 14.0868 152.57 13.3422 151.937 12.7089C151.321 12.0584 150.542 11.7331 149.6 11.7331H145.646Z" fill="#263926"/>
<path d="M134.344 9.47357V27.8582H131.982V9.47357H134.344Z" fill="#263926"/>
<path d="M129.107 9.47357V27.8582H126.745V9.47357H129.107Z" fill="#263926"/>
<path d="M115.389 24.0042C115.389 24.6205 115.645 25.134 116.159 25.5449C116.69 25.9557 117.306 26.1611 118.008 26.1611C119 26.1611 119.882 25.7931 120.652 25.057C121.44 24.3209 121.833 23.4565 121.833 22.4636C121.097 21.8816 120.07 21.5906 118.752 21.5906C117.794 21.5906 116.989 21.8217 116.339 22.2839C115.705 22.7461 115.389 23.3195 115.389 24.0042ZM118.444 14.8633C120.19 14.8633 121.568 15.334 122.578 16.2755C123.588 17.1999 124.093 18.4752 124.093 20.1014V27.8558H121.833V26.1098H121.731C120.755 27.5477 119.454 28.2666 117.828 28.2666C116.441 28.2666 115.277 27.8558 114.336 27.0341C113.411 26.2125 112.949 25.1854 112.949 23.9529C112.949 22.6519 113.437 21.6163 114.413 20.846C115.406 20.0757 116.724 19.6905 118.367 19.6905C119.771 19.6905 120.926 19.9473 121.833 20.4608V19.9216C121.833 19.1 121.508 18.4067 120.858 17.8418C120.207 17.2598 119.446 16.9688 118.573 16.9688C117.254 16.9688 116.21 17.5251 115.44 18.6378L113.36 17.3283C114.507 15.6849 116.202 14.8633 118.444 14.8633Z" fill="#263926"/>
<path d="M110.384 9.47357H112.849L107.945 27.8582H105.531L101.577 15.7387H101.475L97.5203 27.8582H95.1066L89.9969 9.47357H92.4619L96.3391 23.9297H96.4418L100.422 11.9386H102.63L106.61 23.9297H106.713L110.384 9.47357Z" fill="#263926"/>
<path d="M82.3094 28.0721C81.2824 28.0721 80.4265 27.7555 79.7418 27.1221C79.0742 26.4887 78.7318 25.6072 78.7147 24.4774V17.4419H76.5065V15.2851H78.7147V11.4335H81.077V15.2851H84.1582V17.4419H81.077V23.7071C81.077 24.5459 81.2396 25.1193 81.5648 25.4274C81.8901 25.7184 82.2581 25.8639 82.6689 25.8639C82.8572 25.8639 83.037 25.8468 83.2081 25.8126C83.3964 25.7612 83.5676 25.7013 83.7217 25.6328L84.4663 27.7383C83.8501 27.9609 83.1311 28.0721 82.3094 28.0721Z" fill="#263926"/>
<path d="M66.2066 24.0042C66.2066 24.6205 66.4633 25.134 66.9769 25.5449C67.5075 25.9557 68.1238 26.1611 68.8256 26.1611C69.8185 26.1611 70.7 25.7931 71.4703 25.057C72.2578 24.3209 72.6515 23.4565 72.6515 22.4636C71.9154 21.8816 70.8883 21.5906 69.5702 21.5906C68.6116 21.5906 67.8071 21.8217 67.1566 22.2839C66.5233 22.7461 66.2066 23.3195 66.2066 24.0042ZM69.2621 14.8633C71.0082 14.8633 72.3861 15.334 73.3961 16.2755C74.4061 17.1999 74.911 18.4752 74.911 20.1014V27.8558H72.6515V26.1098H72.5488C71.573 27.5477 70.2721 28.2666 68.6459 28.2666C67.2593 28.2666 66.0953 27.8558 65.1538 27.0341C64.2295 26.2125 63.7673 25.1854 63.7673 23.9529C63.7673 22.6519 64.2551 21.6163 65.2309 20.846C66.2237 20.0757 67.5418 19.6905 69.1851 19.6905C70.5888 19.6905 71.7442 19.9473 72.6515 20.4608V19.9216C72.6515 19.1 72.3262 18.4067 71.6758 17.8418C71.0253 17.2598 70.2635 16.9688 69.3905 16.9688C68.0724 16.9688 67.0282 17.5251 66.2579 18.6378L64.1781 17.3283C65.325 15.6849 67.0197 14.8633 69.2621 14.8633Z" fill="#263926"/>
<path d="M61.7307 9.47357V27.8582H59.3684V9.47357H61.7307Z" fill="#263926"/>
<path d="M56.9462 22.9511C56.9462 24.5602 56.3556 25.8526 55.1745 26.8283C53.9762 27.7869 52.5212 28.2662 50.8094 28.2662C49.2859 28.2662 47.9421 27.8212 46.7781 26.931C45.6141 26.0409 44.8096 24.8255 44.3645 23.2849L46.6241 22.3606C46.7781 22.9083 46.9921 23.4048 47.266 23.8498C47.5399 24.2949 47.8566 24.68 48.216 25.0053C48.5926 25.3134 49.0035 25.5616 49.4485 25.7499C49.8936 25.9211 50.3643 26.0067 50.8608 26.0067C51.9392 26.0067 52.8208 25.7328 53.5055 25.185C54.1902 24.6201 54.5325 23.8755 54.5325 22.9511C54.5325 22.1808 54.2501 21.5218 53.6852 20.974C53.1546 20.4434 52.1617 19.9298 50.7067 19.4334C49.2346 18.9027 48.3187 18.5433 47.9593 18.355C46.0078 17.3621 45.0321 15.8985 45.0321 13.9642C45.0321 12.6119 45.5713 11.4564 46.6497 10.4978C47.7453 9.53924 49.089 9.05994 50.681 9.05994C52.0847 9.05994 53.3001 9.41941 54.3271 10.1384C55.3542 10.8402 56.0389 11.7218 56.3813 12.7831L54.1731 13.7075C53.9677 13.0227 53.5568 12.4578 52.9406 12.0128C52.3415 11.5506 51.6054 11.3195 50.7324 11.3195C49.808 11.3195 49.0291 11.5763 48.3958 12.0898C47.7624 12.5691 47.4457 13.1939 47.4457 13.9642C47.4457 14.5976 47.6939 15.1454 48.1904 15.6075C48.7381 16.0697 49.9278 16.6175 51.7594 17.2509C53.6253 17.8842 54.9519 18.6631 55.7394 19.5875C56.5439 20.4947 56.9462 21.6159 56.9462 22.9511Z" fill="#263926"/>
<path d="M26.3896 29.8177L0 14.9387L0 7.49927L26.3896 22.3782V29.8177Z" fill="#263926"/>
<path d="M13.0172 0V7.43946L26.396 14.9826V7.54314L13.0172 0Z" fill="#263926"/>
<path d="M0 22.4781L0 29.9175L13.3787 37.4614L13.3787 30.0213L0 22.4781Z" fill="#263926"/>
</svg>
