<svg width="200" height="49" viewBox="0 0 200 49" fill="none" xmlns="http://www.w3.org/2000/svg">
<path d="M200 0H187.81V4.18887H194.882V44.0816H187.81V48.2705H200V0Z" fill="#263926"/>
<path d="M0 0H12.1904V4.18887H5.11825V44.0816H12.1904V48.2705H0V0Z" fill="#263926"/>
<path d="M171.18 15.6874C171.18 10.4887 173.733 7.51807 178.7 7.51807C183.667 7.51807 186.219 10.4887 186.219 15.6874V16.7086H181.392V15.3625C181.392 13.0416 180.464 12.1597 178.839 12.1597C177.215 12.1597 176.286 13.0416 176.286 15.3625C176.286 22.0465 186.266 23.2997 186.266 32.5831C186.266 37.7817 183.667 40.7524 178.654 40.7524C173.641 40.7524 171.041 37.7817 171.041 32.5831V30.5871H175.869V32.908C175.869 35.2288 176.89 36.0643 178.514 36.0643C180.139 36.0643 181.16 35.2288 181.16 32.908C181.16 26.224 171.18 24.9707 171.18 15.6874Z" fill="#263926"/>
<path d="M153.82 15.6874C153.82 10.4887 156.373 7.51807 161.339 7.51807C166.306 7.51807 168.859 10.4887 168.859 15.6874V16.7086H164.031V15.3625C164.031 13.0416 163.103 12.1597 161.478 12.1597C159.854 12.1597 158.925 13.0416 158.925 15.3625C158.925 22.0465 168.905 23.2997 168.905 32.5831C168.905 37.7817 166.306 40.7524 161.293 40.7524C156.28 40.7524 153.68 37.7817 153.68 32.5831V30.5871H158.508V32.908C158.508 35.2288 159.529 36.0643 161.153 36.0643C162.778 36.0643 163.799 35.2288 163.799 32.908C163.799 26.224 153.82 24.9707 153.82 15.6874Z" fill="#263926"/>
<path d="M128.48 40.3811L122.121 16.8478V40.3811H117.525V7.8894H123.931L129.176 27.338V7.8894H133.725V40.3811H128.48Z" fill="#263926"/>
<path d="M99.5415 12.5311V7.8894H115.323V12.5311H109.985V40.3811H104.879V12.5311H99.5415Z" fill="#263926"/>
<path d="M92.1876 40.3811V7.8894H97.2935V40.3811H92.1876Z" fill="#263926"/>
<path d="M13.7341 12.5311V7.8894H29.5157V12.5311H24.1778V40.3811H19.072V12.5311H13.7341Z" fill="#263926"/>
<path d="M37.8056 12.4166C36.9514 12.8234 36.4521 13.7417 36.4521 15.3629V32.9078C36.4521 34.5289 36.9516 35.4463 37.8056 35.8531V40.6793C33.6165 40.1999 31.3466 37.3153 31.3466 32.5826V15.6871C31.3467 10.9545 33.6165 8.06879 37.8056 7.58948V12.4166ZM40.3906 7.58948C44.5799 8.06868 46.8495 10.9544 46.8495 15.6871V32.5826C46.8495 37.3154 44.5798 40.2 40.3906 40.6793V35.8531C41.2448 35.4464 41.7441 34.5291 41.7441 32.9078V15.3629C41.7441 13.7415 41.2449 12.8233 40.3906 12.4166V7.58948Z" fill="#263926"/>
<path d="M81.3373 20.0466H81.3383V22.325H87.9291V26.9666H81.3383V40.3806H76.2319V7.8894H81.3373V20.0466ZM89.7397 12.531H83.9223V7.8894H89.7397V12.531Z" fill="#263926"/>
<path d="M142.483 20.0466H142.486V21.5828H149.495V26.2244H142.486V35.739H151.305V40.3806H137.381V7.8894H142.483V20.0466ZM151.305 12.531H145.068V7.8894H151.305V12.531Z" fill="#263926"/>
<path d="M66.6466 40.3806H61.4943L60.6124 34.4861H56.962L57.6173 30.0769H59.9161L57.4562 13.6453L54.9962 30.0769H55.004L54.3488 34.4861H54.3468L53.465 40.3806H48.7765L53.9747 7.8894H61.4484L66.6466 40.3806Z" fill="#263926"/>
</svg>
