<svg width="200" height="31" viewBox="0 0 200 31" fill="none" xmlns="http://www.w3.org/2000/svg">
<circle cx="12.3887" cy="7.00703" r="7.00703" fill="#263926"/>
<path d="M24.7783 17.9742C24.7783 24.8165 19.2309 30.3629 12.3887 30.3629C5.54657 30.3628 0 24.8164 0 17.9742H24.7783Z" fill="#263926"/>
<path d="M61.9815 8.2808H64.5975L60.2775 25.3208H57.4455L53.7495 11.4728L50.0295 25.3208H47.2215L42.9015 8.2808H45.4935L48.7575 22.2968L52.3575 8.2808H55.1175L58.7175 22.2488L61.9815 8.2808ZM64.5416 19.2008C64.5416 15.5528 66.9176 12.8408 70.5656 12.8408C74.3576 12.8408 76.6376 15.8648 76.4696 19.7048H67.0376C67.1336 22.1768 68.4296 23.7848 70.6616 23.7848C72.3896 23.7848 73.3496 22.7288 73.8056 21.4328H76.2296C75.5576 23.8568 73.6136 25.6088 70.6376 25.6088C66.9656 25.6088 64.5416 22.8968 64.5416 19.2008ZM73.9976 18.0488C73.6616 16.0088 72.4856 14.6648 70.5656 14.6648C68.6216 14.6648 67.4456 15.9848 67.1096 18.0488H73.9976ZM84.7667 25.6088C82.9667 25.6088 81.6707 24.7688 80.9027 23.4008V25.3208H78.5267V8.2808H80.9027V15.0488C81.6707 13.6808 82.9667 12.8408 84.7667 12.8408C87.9107 12.8408 89.9507 15.5288 89.9507 19.2248C89.9507 22.9448 87.9107 25.6088 84.7667 25.6088ZM84.1187 23.7368C86.2307 23.7368 87.4067 21.8648 87.4067 19.2248C87.4067 16.5848 86.2307 14.7128 84.1187 14.7128C82.0307 14.7128 80.8547 16.5848 80.8547 19.2248C80.8547 21.8648 82.0307 23.7368 84.1187 23.7368ZM96.3032 10.0808C95.3192 10.0808 95.0552 10.4648 95.0552 11.5688V13.0808H97.7432V14.8568H95.0552V25.3208H92.6792V14.8568H90.7592V13.0808H92.6792V11.4248C92.6792 9.2648 93.3992 8.2808 95.5832 8.2808H97.7432V10.0808H96.3032ZM99.1751 8.2808H101.551V25.3208H99.1751V8.2808ZM109.659 25.6088C106.011 25.6088 103.635 22.8968 103.635 19.2008C103.635 15.5528 106.011 12.8408 109.659 12.8408C113.283 12.8408 115.659 15.5528 115.659 19.2008C115.659 22.8968 113.283 25.6088 109.659 25.6088ZM109.659 23.7608C111.843 23.7608 113.115 21.8648 113.115 19.2008C113.115 16.5608 111.843 14.6888 109.659 14.6888C107.451 14.6888 106.179 16.5608 106.179 19.2008C106.179 21.8648 107.451 23.7608 109.659 23.7608ZM131.664 13.0808H134.232L130.416 25.3208H127.848L125.256 15.9128L122.64 25.3208H120.072L116.28 13.0808H118.824L121.488 22.8008L124.032 13.0808H126.456L129 22.8488L131.664 13.0808ZM137.395 22.4408V25.3208H134.515V22.4408H137.395ZM138.995 25.3208V23.0168H141.683C143.435 23.0168 144.371 22.1528 144.371 20.1848V8.2808H146.963V20.4728C146.963 23.6408 145.403 25.3208 142.091 25.3208H138.995ZM155.105 25.6088C151.457 25.6088 149.081 22.8968 149.081 19.2008C149.081 15.5528 151.457 12.8408 155.105 12.8408C158.729 12.8408 161.105 15.5528 161.105 19.2008C161.105 22.8968 158.729 25.6088 155.105 25.6088ZM155.105 23.7608C157.289 23.7608 158.561 21.8648 158.561 19.2008C158.561 16.5608 157.289 14.6888 155.105 14.6888C152.897 14.6888 151.625 16.5608 151.625 19.2008C151.625 21.8648 152.897 23.7608 155.105 23.7608ZM169.423 25.6088C167.623 25.6088 166.327 24.7688 165.559 23.4008V25.3208H163.183V8.2808H165.559V15.0488C166.327 13.6808 167.623 12.8408 169.423 12.8408C172.567 12.8408 174.607 15.5288 174.607 19.2248C174.607 22.9448 172.567 25.6088 169.423 25.6088ZM168.775 23.7368C170.887 23.7368 172.063 21.8648 172.063 19.2248C172.063 16.5848 170.887 14.7128 168.775 14.7128C166.687 14.7128 165.511 16.5848 165.511 19.2248C165.511 21.8648 166.687 23.7368 168.775 23.7368ZM181.53 25.6088C178.122 25.6088 176.082 24.0488 175.842 21.3608H178.29C178.482 23.1848 179.826 23.8568 181.53 23.8568C183.306 23.8568 184.05 22.9448 184.05 21.9128C184.05 20.6648 183.186 20.3528 181.05 19.8248C178.506 19.2008 176.274 18.6488 176.274 16.2248C176.274 14.2088 178.218 12.7928 181.218 12.7928C184.314 12.7928 186.042 14.3768 186.354 16.5128H183.93C183.762 15.2408 182.778 14.5208 181.194 14.5208C179.658 14.5208 178.722 15.2408 178.722 16.0808C178.722 17.2088 179.898 17.4728 181.842 17.9528C184.458 18.5768 186.546 19.2248 186.546 21.7448C186.546 24.2168 184.53 25.6088 181.53 25.6088Z" fill="#263926"/>
</svg>
